<svg width="12px" height="12px" viewBox="0 0 12 12" version="1.1" xmlns="http://www.w3.org/2000/svg" xmlns:xlink="http://www.w3.org/1999/xlink">
    <g id="WH_newer" stroke="none" stroke-width="1" fill="none" fill-rule="evenodd">
        <g id="1440_become-vendor" transform="translate(-779.000000, -937.000000)" fill="#000000">
            <path d="M787.292683,942.95122 C787.292683,943.63415 787.046073,944.15447 786.552846,944.512195 C786.059618,944.86992 785.449868,945.04878 784.723577,945.04878 C784.21409,945.04878 783.73713,944.93496 783.292683,944.707317 C782.609753,944.371272 782.268293,943.818432 782.268293,943.04878 L781.357724,943.162602 C781.357724,944.062335 781.682924,944.791325 782.333333,945.349593 C782.983743,945.907862 783.796743,946.186992 784.772358,946.186992 C785.802173,946.186992 786.631433,945.875342 787.260163,945.252033 C787.888892,944.628723 788.203252,943.883473 788.203252,943.01626 L787.292683,942.95122 Z M788.95122,939.03252 C790.089437,940.170737 790.658537,941.547417 790.658537,943.162602 C790.658537,944.777786 790.089437,946.154466 788.95122,947.292683 C787.802162,948.4309 786.420062,949 784.804878,949 C783.200534,949 781.829274,948.4309 780.691057,947.292683 C779.56368,946.154466 779,944.777786 779,943.162602 C779,941.547417 779.56368,940.170737 780.691057,939.03252 C781.829274,937.894303 783.200534,937.325203 784.804878,937.325203 C786.420062,937.325203 787.802162,937.894303 788.95122,939.03252 Z M786.414634,942.235772 C786.685638,942.235772 786.910568,942.146342 787.089431,941.96748 C787.268294,941.788617 787.357724,941.563687 787.357724,941.292683 C787.357724,941.010839 787.268294,940.780489 787.089431,940.601626 C786.910568,940.422763 786.685638,940.333333 786.414634,940.333333 C786.14363,940.333333 785.9187,940.422763 785.739837,940.601626 C785.560975,940.780489 785.471545,941.010839 785.471545,941.292683 C785.471545,941.563687 785.560975,941.788617 785.739837,941.96748 C785.9187,942.146342 786.14363,942.235772 786.414634,942.235772 Z M783.243902,942.235772 C783.514907,942.235772 783.739837,942.146342 783.918699,941.96748 C784.097562,941.788617 784.186992,941.563687 784.186992,941.292683 C784.186992,941.010839 784.097562,940.780489 783.918699,940.601626 C783.739837,940.422763 783.514907,940.333333 783.243902,940.333333 C782.972898,940.333333 782.747968,940.422763 782.569106,940.601626 C782.390243,940.780489 782.300813,941.010839 782.300813,941.292683 C782.300813,941.563687 782.390243,941.788617 782.569106,941.96748 C782.747968,942.146342 782.972898,942.235772 783.243902,942.235772 Z" id="☻"></path>
        </g>
    </g>
</svg>
