<svg width="18px" height="30px" viewBox="0 0 18 30" version="1.1" xmlns="http://www.w3.org/2000/svg" xmlns:xlink="http://www.w3.org/1999/xlink">
    <defs></defs>
    <g id="R2" stroke="none" stroke-width="1" fill="none" fill-rule="evenodd">
        <g id="1440_HP_v2-1" transform="translate(-622.000000, -3336.000000)" fill="#000000" fill-rule="nonzero">
            <g id="Group-5" transform="translate(460.000000, 3336.000000)">
                <g id="54065" transform="translate(162.000000, 0.000000)">
                    <path d="M17.2351324,0.00484237074 L12.6808449,0.00696090794 C12.6808449,0.00696090794 12.588575,0 12.4226103,0 C11.4881463,0 6.76244641,0.2596343 5.47672131,5.3269483 C5.45659521,5.3831652 5.02407314,6.65156368 5.01715006,9.60139975 L0.696847415,9.60139975 C0.313656999,9.60139975 0.00261034048,9.91240858 0.00261034048,10.2956368 L0.00261034048,14.2764439 C0.00261034048,14.6596721 0.313656999,14.970681 0.696847415,14.970681 L5.42186633,14.970681 L5.42186633,29.2679319 C5.42186633,29.6511602 5.73287516,29.9622068 6.1161034,29.9622068 L11.5263556,29.9622068 C11.909546,29.9622068 12.2206305,29.6511602 12.2206305,29.2679319 L12.2206305,14.9852081 L16.9608953,14.9852081 C17.3441614,14.9852081 17.6551702,14.6741992 17.6551702,14.290971 L17.6551702,10.2956368 C17.6551702,9.91240858 17.3441614,9.60139975 16.9608953,9.60139975 L12.2302774,9.60139975 L12.2302774,7.89283733 C12.2302774,6.75495586 12.9523203,5.53936948 14.9795334,5.53936948 L17.2351324,5.53936948 C17.6183228,5.53936948 17.9293317,5.22836066 17.9293317,4.84513241 L17.9293317,0.699079445 C17.9293317,0.315889029 17.6190038,0.00484237074 17.2351324,0.00484237074 Z M16.5408575,4.15089533 L14.9795334,4.15089533 C12.1212863,4.15089533 10.8418411,6.03022699 10.8418411,7.89287516 L10.8418411,10.2956747 C10.8418411,10.6789029 11.1528499,10.9899117 11.5360404,10.9899117 L16.2665826,10.9899117 L16.2665826,13.5968096 L11.5263556,13.5968096 C11.1430895,13.5968096 10.8320807,13.9078184 10.8320807,14.2910467 L10.8320807,28.5737327 L6.81034048,28.5737327 L6.81034048,14.2764439 C6.81034048,13.8932156 6.49933165,13.5822068 6.1161034,13.5822068 L1.39108449,13.5822068 L1.39108449,10.9899117 L5.71691047,10.9899117 C5.90364439,10.9899117 6.08205549,10.9149306 6.21261034,10.781652 C6.3431652,10.6483733 6.41462799,10.4685624 6.41118537,10.2817907 C6.34940731,7.12437579 6.7832913,5.7948802 6.80413619,5.72754098 C7.82810845,1.70160151 11.3638714,1.38847415 12.4226103,1.38847415 C12.5191173,1.38847415 12.5767339,1.39127364 12.6329887,1.39335435 L16.5408575,1.39335435 L16.5408575,4.15089533 Z" id="Shape"></path>
                </g>
            </g>
        </g>
    </g>
</svg>
