<svg width="12px" height="12px" viewBox="0 0 12 12" version="1.1" xmlns="http://www.w3.org/2000/svg" xmlns:xlink="http://www.w3.org/1999/xlink">
    <g id="WH_newer" stroke="none" stroke-width="1" fill="none" fill-rule="evenodd">
        <g id="1440_become-vendor" transform="translate(-779.000000, -1867.000000)" fill="currentColor">
            <path d="M784.297485,1873.35906 L781.830876,1870.87164 L780.457069,1872.24545 L779,1870.77797 L780.373807,1869.39376 L780.030356,1869.07112 L781.050304,1868.05117 L781.37294,1868.37381 L782.73634,1867 L784.193408,1868.47788 L782.840416,1869.85169 L785.296618,1872.33912 L787.763226,1869.8621 L786.399827,1868.47788 L787.867303,1867 L789.230703,1868.38422 L789.553339,1868.05117 L790.562879,1869.07112 L790.229835,1869.39376 C790.576758,1869.94883 790.833477,1871.20467 791,1873.16132 L788.772767,1870.87164 L786.316565,1873.36947 L787.627927,1874.69124 L789.99046,1876.69991 L788.62706,1878.07372 L786.628794,1875.70078 L785.296618,1874.37901 L783.985256,1875.70078 L781.98699,1878.07372 L780.623591,1876.69991 L782.965308,1874.69124 L784.297485,1873.35906 Z" id="⚒︎"></path>
        </g>
    </g>
</svg>
