<svg width="12px" height="12px" viewBox="0 0 12 12" version="1.1" xmlns="http://www.w3.org/2000/svg" xmlns:xlink="http://www.w3.org/1999/xlink">
    <g id="WH_newer" stroke="none" stroke-width="1" fill="none" fill-rule="evenodd">
        <g id="1440_become-vendor" transform="translate(-239.000000, -1482.000000)" fill="currentColor">
            <path d="M249.930233,1487.54419 C250.184497,1487.44496 250.345736,1487.39535 250.413953,1487.39535 C250.575195,1487.39535 250.713178,1487.45271 250.827907,1487.56744 C250.942636,1487.68217 251,1487.82015 251,1487.9814 C251,1488.13643 250.941086,1488.27132 250.823256,1488.38605 C250.705426,1488.50078 250.568993,1488.55814 250.413953,1488.55814 C250.345736,1488.55814 250.184497,1488.50543 249.930233,1488.4 C249.787596,1489.47287 249.403104,1490.4 248.776744,1491.1814 C249.198452,1491.27442 249.409302,1491.48217 249.409302,1491.80465 C249.409302,1491.97209 249.35814,1492.11163 249.255814,1492.22326 C249.153488,1492.33488 249.015505,1492.3907 248.84186,1492.3907 C248.500773,1492.3907 248.305427,1492.17365 248.255814,1491.73953 C247.4186,1492.40931 246.454269,1492.8031 245.362791,1492.92093 C245.486822,1493.15659 245.548837,1493.32093 245.548837,1493.41395 C245.548837,1493.57519 245.493024,1493.71008 245.381395,1493.8186 C245.269767,1493.92713 245.136435,1493.9814 244.981395,1493.9814 C244.820154,1493.9814 244.685272,1493.92713 244.576744,1493.8186 C244.468217,1493.71008 244.413953,1493.57519 244.413953,1493.41395 C244.413953,1493.30233 244.48217,1493.13178 244.618605,1492.90233 C243.533328,1492.7845 242.575198,1492.3845 241.744186,1491.70233 C241.700775,1492.16124 241.505428,1492.3907 241.15814,1492.3907 C240.984495,1492.3907 240.846512,1492.33488 240.744186,1492.22326 C240.64186,1492.11163 240.590698,1491.97209 240.590698,1491.80465 C240.590698,1491.46977 240.810851,1491.26202 241.251163,1491.1814 C240.599997,1490.4 240.212404,1489.47287 240.088372,1488.4 C239.815503,1488.50543 239.648062,1488.55814 239.586047,1488.55814 C239.431007,1488.55814 239.294574,1488.50078 239.176744,1488.38605 C239.058914,1488.27132 239,1488.13643 239,1487.9814 C239,1487.82015 239.057364,1487.68217 239.172093,1487.56744 C239.286822,1487.45271 239.424805,1487.39535 239.586047,1487.39535 C239.648062,1487.39535 239.815503,1487.44496 240.088372,1487.54419 C240.206202,1486.48372 240.593795,1485.55039 241.251163,1484.74419 C240.817052,1484.68837 240.6,1484.49923 240.6,1484.17674 C240.6,1484.0093 240.657364,1483.86822 240.772093,1483.75349 C240.886822,1483.63876 241.024805,1483.5814 241.186047,1483.5814 C241.533335,1483.5814 241.731783,1483.79845 241.781395,1484.23256 C242.581399,1483.58139 243.50232,1483.1876 244.544186,1483.05116 C244.457364,1482.85891 244.413953,1482.70078 244.413953,1482.57674 C244.413953,1482.4217 244.468217,1482.28682 244.576744,1482.17209 C244.685272,1482.05736 244.820154,1482 244.981395,1482 C245.130233,1482 245.262015,1482.05736 245.376744,1482.17209 C245.491473,1482.28682 245.548837,1482.4217 245.548837,1482.57674 C245.548837,1482.69457 245.486822,1482.85891 245.362791,1483.06977 C246.392253,1483.14419 247.319376,1483.51317 248.144186,1484.17674 C248.342637,1483.77984 248.56589,1483.5814 248.813953,1483.5814 C248.968993,1483.5814 249.103875,1483.63566 249.218605,1483.74419 C249.333334,1483.85271 249.390698,1483.9907 249.390698,1484.15814 C249.390698,1484.48682 249.176746,1484.68217 248.748837,1484.74419 C249.393802,1485.53799 249.787596,1486.47131 249.930233,1487.54419 Z M247.511628,1484.97674 C246.841857,1484.48682 246.131787,1484.18915 245.381395,1484.08372 C245.493024,1484.35039 245.548837,1484.58915 245.548837,1484.8 C245.548837,1484.89302 245.530233,1485.01395 245.493023,1485.16279 C245.455814,1485.31783 245.437209,1485.44496 245.437209,1485.54419 C245.437209,1485.63721 245.452713,1485.75814 245.483721,1485.90698 C245.527132,1486.14264 245.548837,1486.37829 245.548837,1486.61395 C245.71628,1486.44651 245.902325,1486.29457 246.106977,1486.15814 C246.336435,1486.0155 246.510077,1485.83256 246.627907,1485.6093 C246.714729,1485.43566 246.815503,1485.30388 246.930233,1485.21395 C247.044962,1485.12403 247.238758,1485.04496 247.511628,1484.97674 Z M244.581395,1484.08372 C243.849609,1484.18295 243.158143,1484.48062 242.506977,1484.97674 C242.767443,1485.04496 242.955038,1485.12403 243.069767,1485.21395 C243.184497,1485.30388 243.285271,1485.43566 243.372093,1485.6093 C243.508528,1485.86357 243.710076,1486.06201 243.976744,1486.20465 C244.150388,1486.29767 244.296123,1486.3845 244.413953,1486.46512 C244.413953,1486.29767 244.438759,1486.11473 244.488372,1485.91628 C244.525582,1485.76744 244.544186,1485.64341 244.544186,1485.54419 C244.544186,1485.44496 244.522481,1485.31783 244.47907,1485.16279 C244.435659,1485.01395 244.413953,1484.89302 244.413953,1484.8 C244.413953,1484.58915 244.469767,1484.35039 244.581395,1484.08372 Z M248.906977,1487.54419 C248.795348,1486.8248 248.516281,1486.14574 248.069767,1485.50698 C247.877518,1485.88527 247.638761,1486.16124 247.353488,1486.33488 C247.136433,1486.46512 246.959691,1486.63876 246.823256,1486.85581 C246.693023,1487.05426 246.550388,1487.23411 246.395349,1487.39535 C246.618606,1487.39535 246.851162,1487.42636 247.093023,1487.48837 C247.23566,1487.52558 247.350387,1487.54419 247.437209,1487.54419 C247.548838,1487.54419 247.679069,1487.51938 247.827907,1487.46977 C247.976745,1487.42015 248.100775,1487.39535 248.2,1487.39535 C248.336435,1487.39535 248.572091,1487.44496 248.906977,1487.54419 Z M243.604651,1487.39535 C243.449612,1487.23411 243.306977,1487.05426 243.176744,1486.85581 C243.040309,1486.63876 242.863567,1486.46512 242.646512,1486.33488 C242.379844,1486.17364 242.134885,1485.90388 241.911628,1485.52558 C241.471316,1486.16434 241.204652,1486.83721 241.111628,1487.54419 C241.427909,1487.44496 241.657364,1487.39535 241.8,1487.39535 C241.899225,1487.39535 242.023255,1487.42015 242.172093,1487.46977 C242.320931,1487.51938 242.451162,1487.54419 242.562791,1487.54419 C242.649613,1487.54419 242.76434,1487.52558 242.906977,1487.48837 C243.148838,1487.42636 243.381394,1487.39535 243.604651,1487.39535 Z M245,1488.90233 C245.248063,1488.90233 245.462015,1488.81085 245.64186,1488.62791 C245.821706,1488.44496 245.911628,1488.22946 245.911628,1487.9814 C245.911628,1487.73333 245.821706,1487.51938 245.64186,1487.33953 C245.462015,1487.15969 245.248063,1487.06977 245,1487.06977 C244.751937,1487.06977 244.537985,1487.15969 244.35814,1487.33953 C244.178294,1487.51938 244.088372,1487.73333 244.088372,1487.9814 C244.088372,1488.22946 244.178294,1488.44496 244.35814,1488.62791 C244.537985,1488.81085 244.751937,1488.90233 245,1488.90233 Z M248.925581,1488.3814 C248.640309,1488.49923 248.398451,1488.55814 248.2,1488.55814 C248.100775,1488.55814 247.976745,1488.53954 247.827907,1488.50233 C247.679069,1488.45891 247.548838,1488.43721 247.437209,1488.43721 C247.350387,1488.43721 247.23566,1488.45271 247.093023,1488.48372 C246.851162,1488.53333 246.618606,1488.55814 246.395349,1488.55814 C246.562792,1488.72558 246.711627,1488.91163 246.84186,1489.11628 C246.984497,1489.33954 247.167441,1489.51008 247.390698,1489.62791 C247.644963,1489.77054 247.877518,1490.02791 248.088372,1490.4 C248.516281,1489.77984 248.795348,1489.10698 248.925581,1488.3814 Z M243.604651,1488.55814 C243.381394,1488.55814 243.148838,1488.53333 242.906977,1488.48372 C242.76434,1488.45271 242.649613,1488.43721 242.562791,1488.43721 C242.451162,1488.43721 242.320931,1488.45891 242.172093,1488.50233 C242.023255,1488.53954 241.899225,1488.55814 241.8,1488.55814 C241.601549,1488.55814 241.365893,1488.49923 241.093023,1488.3814 C241.204652,1489.10698 241.483719,1489.77984 241.930233,1490.4 C242.11628,1490.03411 242.342634,1489.77674 242.609302,1489.62791 C242.832559,1489.51008 243.015503,1489.33954 243.15814,1489.11628 C243.288373,1488.91163 243.437208,1488.72558 243.604651,1488.55814 Z M244.544186,1491.86977 C244.457364,1491.6031 244.413953,1491.37985 244.413953,1491.2 C244.413953,1491.10077 244.435659,1490.97985 244.47907,1490.83721 C244.522481,1490.68217 244.544186,1490.55194 244.544186,1490.44651 C244.544186,1490.34729 244.525582,1490.22326 244.488372,1490.07442 C244.438759,1489.86356 244.413953,1489.66202 244.413953,1489.46977 C244.277519,1489.56899 244.11628,1489.66822 243.930233,1489.76744 C243.675968,1489.91008 243.47752,1490.10543 243.334884,1490.35349 C243.161239,1490.64496 242.903878,1490.87752 242.562791,1491.05116 C243.170546,1491.47287 243.831004,1491.74574 244.544186,1491.86977 Z M247.455814,1491.05116 C247.102324,1490.88372 246.838761,1490.65116 246.665116,1490.35349 C246.516278,1490.09302 246.324032,1489.90698 246.088372,1489.79535 C245.958139,1489.73953 245.862016,1489.68062 245.8,1489.6186 L245.8,1489.6 L245.548837,1489.66512 L245.548837,1489.70233 C245.548837,1489.79535 245.533333,1489.91008 245.502326,1490.04651 C245.458915,1490.20155 245.437209,1490.33488 245.437209,1490.44651 C245.437209,1490.55194 245.455814,1490.68217 245.493023,1490.83721 C245.530233,1490.97985 245.548837,1491.10077 245.548837,1491.2 C245.548837,1491.37364 245.499225,1491.5907 245.4,1491.85116 C246.113182,1491.75814 246.798446,1491.49148 247.455814,1491.05116 Z" id="☸︎"></path>
        </g>
    </g>
</svg>
