<svg width="11px" height="7px" viewBox="0 0 11 7" version="1.1" xmlns="http://www.w3.org/2000/svg" xmlns:xlink="http://www.w3.org/1999/xlink">
    <g id="WH_newer" stroke="none" stroke-width="1" fill="none" fill-rule="evenodd">
        <g id="1440_become-vendor" transform="translate(-780.000000, -1993.000000)" fill="currentColor">
            <path d="M790.711633,1995.79306 C790.799746,1995.88117 790.869834,1995.97729 790.921901,1996.08142 C790.973967,1996.18556 791,1996.28168 791,1996.36979 C791,1996.46591 790.974968,1996.56404 790.924904,1996.66417 C790.87484,1996.76429 790.803751,1996.86042 790.711633,1996.95253 L788.52485,1999.15133 C788.404696,1999.27549 788.287548,1999.36661 788.173403,1999.42468 C788.059257,1999.48275 787.946114,1999.51179 787.833971,1999.51179 C787.633715,1999.51179 787.473512,1999.44471 787.353359,1999.31053 C787.233205,1999.17636 787.173129,1998.99714 787.173129,1998.77285 C787.173129,1998.62466 787.214181,1998.40839 787.296286,1998.12402 C787.378391,1997.83966 787.419443,1997.6334 787.419443,1997.50524 C787.419443,1997.36105 787.373385,1997.25091 787.281267,1997.17482 C787.189149,1997.09872 787.058985,1997.06067 786.89077,1997.06067 C786.674494,1997.06067 786.495267,1997.11274 786.353086,1997.21687 C786.210904,1997.321 786.085746,1997.49122 785.977608,1997.72752 L785.472966,1998.78486 C785.320771,1999.10127 785.150556,1999.32956 784.962316,1999.46974 C784.774075,1999.60992 784.545787,1999.68 784.277444,1999.68 L780.883124,1999.68 C780.58274,1999.68 780.360459,1999.61092 780.216275,1999.47274 C780.072091,1999.33456 780,1999.12129 780,1998.83293 C780,1998.76484 780.007009,1998.69375 780.021027,1998.61965 C780.035045,1998.54556 780.056071,1998.46446 780.084107,1998.37635 L780.648826,1996.68219 C780.664846,1996.62612 780.676861,1996.56905 780.684872,1996.51097 C780.692882,1996.4529 780.696887,1996.39783 780.696887,1996.34576 C780.696887,1996.28969 780.692882,1996.23963 780.684872,1996.19557 C780.676861,1996.15151 780.664846,1996.10746 780.648826,1996.0634 L780.084107,1994.36925 C780.056071,1994.28914 780.035045,1994.21205 780.021027,1994.13795 C780.007009,1994.06386 780,1993.98876 780,1993.91266 C780,1993.6283 780.073092,1993.41503 780.219279,1993.27285 C780.365466,1993.13067 780.586745,1993.05958 780.883124,1993.05958 L784.277444,1993.05958 C784.545787,1993.05958 784.774075,1993.13167 784.962316,1993.27585 C785.150556,1993.42004 785.320771,1993.64833 785.472966,1993.96073 L785.977608,1995.01807 C786.093756,1995.26639 786.220917,1995.43961 786.359093,1995.53773 C786.49727,1995.63586 786.678499,1995.68492 786.902785,1995.68492 C787.066995,1995.68492 787.194156,1995.64587 787.284271,1995.56777 C787.374386,1995.48967 787.419443,1995.38053 787.419443,1995.24035 C787.419443,1995.11219 787.378391,1994.90493 787.296286,1994.61856 C787.214181,1994.3322 787.173129,1994.11292 787.173129,1993.96073 C787.173129,1993.74044 787.233205,1993.56422 787.353359,1993.43205 C787.473512,1993.29988 787.633715,1993.2338 787.833971,1993.2338 C787.946114,1993.2338 788.060258,1993.26384 788.176406,1993.32391 C788.292555,1993.38399 788.408701,1993.47411 788.52485,1993.59426 L790.711633,1995.79306 Z" id="➽"></path>
        </g>
    </g>
</svg>
