<svg width="13px" height="14px" viewBox="0 0 13 14" version="1.1" xmlns="http://www.w3.org/2000/svg" xmlns:xlink="http://www.w3.org/1999/xlink">
    <g id="WH_newer" stroke="none" stroke-width="1" fill="none" fill-rule="evenodd">
        <g id="1440_become-vendor" transform="translate(-778.000000, -979.000000)" fill="#000000">
            <path d="M790.375,992.24591 L781.433484,992.24591 C781.433484,991.344767 781.546728,990.653258 781.773218,990.171363 C781.999709,989.689468 782.399676,989.282273 782.973131,988.949765 C783.700792,988.530517 784.064617,988.00044 784.064617,987.35952 C784.064617,987.214951 784.016429,987.067976 783.92005,986.918588 C783.664645,987.125803 782.982774,987.361928 781.874416,987.62697 C781.4889,987.737806 781.252775,988.10886 781.166034,988.740142 C781.117844,989.038917 781.020262,989.271428 780.873284,989.437681 C780.726306,989.603935 780.551622,989.687061 780.349226,989.687061 C780.156468,989.687061 779.990217,989.667785 779.850467,989.629234 C779.850467,989.373829 779.875766,989.176255 779.926365,989.036506 C779.976964,988.896756 780.064909,988.75219 780.190202,988.602803 C780.325132,988.419682 780.392596,988.25825 780.392596,988.118501 C780.392596,987.940199 780.310675,987.85105 780.146831,987.85105 C780.01672,987.85105 779.838421,988.070309 779.61193,988.508834 C779.351707,989.019642 779.187865,989.279861 779.1204,989.289499 C778.373463,988.850975 778,988.301623 778,987.641427 C778,987.236635 778.279495,986.660779 778.838493,985.913842 C779.243285,985.369301 779.501095,984.98861 779.61193,984.771757 C779.722766,984.554904 779.797459,984.287457 779.836011,983.969406 C779.874562,983.622442 779.916727,983.377884 779.962507,983.235725 C780.008287,983.093566 780.113098,982.899606 780.276942,982.653839 C780.493795,982.335789 780.629928,982.063522 780.685346,981.837032 C780.740764,981.610541 780.768473,981.302133 780.768473,980.911798 L780.768473,980.008249 C781.221454,980.205826 781.659972,980.668439 782.084039,981.3961 L782.467144,981.381643 C782.650264,981.058773 782.787602,980.550382 782.879162,979.856453 C783.216488,980.01066 783.524896,980.303406 783.804395,980.734702 C784.083895,981.165998 784.279059,981.465973 784.389895,981.634637 C786.462043,981.899679 787.97758,982.664676 788.936551,983.92965 C789.895522,985.194624 790.375,987.345048 790.375,990.380986 L790.375,992.24591 Z M782.39486,981.858717 C782.21174,981.858717 782.01778,981.911724 781.812975,982.017741 C781.608169,982.123758 781.491311,982.273143 781.462398,982.465901 C781.597328,982.465901 781.759965,982.435783 781.950314,982.375546 C782.140662,982.31531 782.256316,982.239412 782.297277,982.147852 C782.338238,982.056292 782.370765,981.959915 782.39486,981.858717 Z M789.630476,991.833892 L789.630476,990.67735 C789.630476,988.219686 789.382304,986.413812 788.885952,985.259673 C788.3896,984.105535 787.70291,983.295963 786.825862,982.830935 C785.948813,982.365906 785.240438,982.133395 784.700716,982.133395 C784.503139,982.133395 784.404352,982.208088 784.404352,982.357475 C784.404352,982.405665 784.426037,982.455058 784.469407,982.505657 C784.512778,982.556256 784.556148,982.586374 784.599518,982.596012 C785.924729,982.92852 786.915008,983.63569 787.570386,984.717544 C788.225763,985.799398 788.553446,987.441431 788.553446,989.64369 C788.553446,990.24124 788.483573,990.9713 788.343823,991.833892 L789.630476,991.833892 Z M782.199693,983.868209 L782.141866,983.738098 L781.816589,983.738098 C781.652745,983.738098 781.444328,983.823633 781.191333,983.994705 C780.938338,984.165778 780.811843,984.335643 780.811843,984.504307 C780.811843,984.62478 780.925086,984.774166 781.151577,984.952467 L781.151577,984.641646 L781.209404,984.547677 L781.520225,984.591047 C781.688888,984.504306 781.773218,984.427204 781.773218,984.359739 L781.744305,984.077832 C781.864779,983.981453 782.016573,983.911579 782.199693,983.868209 Z M779.243283,987.171582 C779.093895,987.171582 778.969809,987.220975 778.871021,987.319764 C778.772232,987.418552 778.722839,987.540229 778.722839,987.684797 C778.722839,987.916107 778.797531,988.03176 778.946919,988.03176 C779.019203,988.03176 779.084258,988.005256 779.142085,987.952248 C779.199913,987.899239 779.228826,987.831775 779.228826,987.749853 L779.019203,987.496859 C779.130039,987.410118 779.204731,987.301693 779.243283,987.171582 Z" id="♞"></path>
        </g>
    </g>
</svg>
