<?xml version="1.0" encoding="UTF-8"?>
<svg width="12px" height="12px" viewBox="0 0 12 12" version="1.1" xmlns="http://www.w3.org/2000/svg" xmlns:xlink="http://www.w3.org/1999/xlink">
    <!-- Generator: Sketch 52.6 (67491) - http://www.bohemiancoding.com/sketch -->
    <title>☯︎</title>
    <desc>Created with Sketch.</desc>
    <g id="WH_newer" stroke="none" stroke-width="1" fill="none" fill-rule="evenodd">
        <g id="1440_become-vendor" transform="translate(-239.000000, -1419.000000)" fill="#000000">
            <path d="M250.264,1424.872 C250.264,1421.896 247.816,1419.464 244.856,1419.464 C242.392,1419.464 240.312,1421.208 239.656,1423.512 C239.288,1424.872 240.104,1426.648 241.928,1426.648 C243.224,1426.648 243.656,1426.168 244.856,1424.84 C245.608,1424.008 246.552,1423.032 247.848,1423.032 C249.688,1423.032 250.408,1424.824 250.104,1426.168 C250.232,1425.736 250.264,1425.336 250.264,1424.872 Z M250.728,1424.872 C250.728,1428.104 248.088,1430.744 244.856,1430.744 C241.64,1430.744 239,1428.104 239,1424.872 C239,1421.64 241.64,1419 244.856,1419 C248.088,1419 250.728,1421.64 250.728,1424.872 Z" id="☯︎"></path>
        </g>
    </g>
</svg>