<svg width="12px" height="14px" viewBox="0 0 12 14" version="1.1" xmlns="http://www.w3.org/2000/svg" xmlns:xlink="http://www.w3.org/1999/xlink">
    <g id="WH_newer" stroke="none" stroke-width="1" fill="none" fill-rule="evenodd">
        <g id="1440_become-vendor" transform="translate(-239.000000, -1356.000000)" fill="#000000">
            <path d="M241.634894,1358.66553 L241.655319,1358.66553 C241.51234,1359.65277 241.222981,1360.14638 240.787234,1360.14638 L240.746383,1360.14638 C240.467233,1360.09872 240.32766,1359.98979 240.32766,1359.81957 L240.32766,1359.80936 C240.32766,1359.54383 240.7634,1359.16256 241.634894,1358.66553 Z M244.606809,1356.86809 L244.617021,1356.86809 C244.48085,1357.84852 244.191492,1358.33872 243.748936,1358.33872 L243.708085,1358.33872 C243.435743,1358.30468 243.299574,1358.20255 243.299574,1358.03234 L243.299574,1358.01191 C243.299574,1357.75319 243.735315,1357.37192 244.606809,1356.86809 Z M247.170213,1356 L247.190638,1356 C247.047659,1356.98724 246.7583,1357.48085 246.322553,1357.48085 L246.271489,1357.48085 C245.999148,1357.44 245.862979,1357.33447 245.862979,1357.16426 L245.862979,1357.14383 C245.862979,1356.88511 246.298719,1356.50383 247.170213,1356 Z M247.629787,1358.0834 L247.650213,1358.0834 C247.507233,1359.06383 247.217875,1359.55404 246.782128,1359.55404 L246.741277,1359.55404 C246.462126,1359.52 246.322553,1359.41787 246.322553,1359.24766 L246.322553,1359.22723 C246.322553,1358.9617 246.758294,1358.58043 247.629787,1358.0834 Z M250.193191,1356.58213 L250.22383,1356.58213 C250.08085,1357.56256 249.788087,1358.05277 249.345532,1358.05277 L249.304681,1358.05277 C249.025531,1358.01872 248.885957,1357.9166 248.885957,1357.74638 L248.885957,1357.72596 C248.885957,1357.46042 249.321698,1357.07915 250.193191,1356.58213 Z M250.989787,1358.0834 L251,1358.0834 C250.870638,1359.06383 250.584683,1359.55404 250.142128,1359.55404 L250.091064,1359.55404 C249.818722,1359.52681 249.682553,1359.42468 249.682553,1359.24766 L249.682553,1359.22723 C249.682553,1358.96851 250.118294,1358.58724 250.989787,1358.0834 Z M250.33617,1360.51404 L250.356596,1360.51404 C250.213616,1361.50128 249.920853,1361.99489 249.478298,1361.99489 L249.437447,1361.99489 C249.165105,1361.95404 249.028936,1361.84851 249.028936,1361.6783 L249.028936,1361.66809 C249.028936,1361.39574 249.464676,1361.01107 250.33617,1360.51404 Z M244.76,1360.1566 L245.178723,1360.1566 L245.219574,1360.19745 L245.219574,1360.99404 L245.229787,1360.99404 C247.326819,1360.99404 249.042547,1362.02212 250.377021,1364.0783 C250.581278,1364.43915 250.683404,1364.65021 250.683404,1364.71149 L250.683404,1364.76255 L250.673191,1364.76255 C250.564255,1364.70128 250.465532,1364.57192 250.377021,1364.37447 C250.206808,1364.27234 249.988937,1364.22128 249.723404,1364.22128 L249.406809,1364.22128 C248.691911,1364.22128 248.065535,1364.43234 247.52766,1364.85447 L247.52766,1365.19149 C247.52766,1365.25277 247.510638,1365.28681 247.476596,1365.29362 L247.241702,1364.87489 C246.519996,1364.61617 245.835748,1364.48681 245.188936,1364.48681 L245.188936,1368.83745 C245.188936,1369.26639 244.937024,1369.53191 244.433191,1369.63404 L244.218723,1369.64426 C243.782977,1369.64426 243.476597,1369.44 243.299574,1369.03149 L243.289362,1368.85787 L243.289362,1368.69447 L243.330213,1368.65362 L243.636596,1368.65362 L243.677447,1368.69447 L243.677447,1368.76596 C243.725107,1369.1949 243.898722,1369.40936 244.198298,1369.40936 L244.269787,1369.40936 C244.528512,1369.40936 244.705531,1369.28681 244.800851,1369.0417 L244.841702,1368.78638 L244.841702,1364.48681 C243.840846,1364.48681 243.136172,1364.61617 242.72766,1364.87489 C242.645957,1365.12 242.571064,1365.24255 242.502979,1365.24255 L242.451915,1365.2017 L242.451915,1365.12 L242.502979,1364.79319 L242.47234,1364.79319 C242.152339,1364.52766 241.525962,1364.33702 240.593191,1364.22128 L240.113191,1364.22128 C239.636593,1364.22128 239.320001,1364.35064 239.163404,1364.60936 L239.020426,1364.7217 L239,1364.7217 L239,1364.71149 C239.272342,1364.09872 239.864676,1363.33277 240.777021,1362.41362 C241.920857,1361.46723 243.234886,1360.99404 244.719149,1360.99404 L244.719149,1360.19745 L244.76,1360.1566 Z" id="☔︎"></path>
        </g>
    </g>
</svg>
