<svg width="10px" height="14px" viewBox="0 0 10 14" version="1.1" xmlns="http://www.w3.org/2000/svg" xmlns:xlink="http://www.w3.org/1999/xlink">
    <g id="WH_newer" stroke="none" stroke-width="1" fill="none" fill-rule="evenodd">
        <g id="1440_become-vendor" transform="translate(-781.000000, -1950.000000)" fill="#000000">
            <path d="M790.703125,1963.05958 L781,1963.05958 L781,1962.5127 C781,1961.13249 781.695306,1960.29656 783.085938,1960.00489 C784.247402,1958.26009 784.828125,1956.7549 784.828125,1955.48927 L784.828125,1955.15333 L782.9375,1955.15333 L782.9375,1954.80177 C782.9375,1954.49968 783.072915,1954.20802 783.34375,1953.92677 C783.614585,1953.64551 783.997393,1953.41375 784.492188,1953.23145 C784.158853,1952.83562 783.992188,1952.39291 783.992188,1951.90333 C783.992188,1951.39812 784.174477,1950.96323 784.539062,1950.59864 C784.903648,1950.23406 785.341143,1950.05177 785.851562,1950.05177 C786.361982,1950.05177 786.799477,1950.23406 787.164062,1950.59864 C787.528648,1950.96323 787.710938,1951.39812 787.710938,1951.90333 C787.710938,1952.39291 787.544272,1952.83562 787.210938,1953.23145 C787.705732,1953.41375 788.08854,1953.64551 788.359375,1953.92677 C788.63021,1954.20802 788.765625,1954.49968 788.765625,1954.80177 L788.765625,1955.15333 L786.875,1955.15333 L786.875,1955.48927 C786.875,1956.7549 787.455723,1958.26009 788.617188,1960.00489 C790.007819,1960.29656 790.703125,1961.13249 790.703125,1962.5127 L790.703125,1963.05958 Z" id="♟"></path>
        </g>
    </g>
</svg>
