<svg width="10px" height="10px" viewBox="0 0 10 10" version="1.1" xmlns="http://www.w3.org/2000/svg" xmlns:xlink="http://www.w3.org/1999/xlink">
    <g id="WH_newer" stroke="none" stroke-width="1" fill="none" fill-rule="evenodd">
        <g id="1440_become-vendor" transform="translate(-781.000000, -897.000000)" fill="#000000">
            <path d="M785.34375,901.539062 L784.054688,899.585938 C783.763019,899.148435 783.617188,898.695315 783.617188,898.226562 C783.617188,897.773435 783.791665,897.41146 784.140625,897.140625 C784.286459,897.046875 784.434895,897 784.585938,897 C784.934898,897 785.195312,897.114582 785.367188,897.34375 C785.539063,897.572918 785.712239,897.572918 785.886719,897.34375 C786.061199,897.114582 786.26302,897 786.492188,897 C786.861981,897 787.156249,897.239581 787.375,897.71875 C787.427084,897.895834 787.453125,898.065103 787.453125,898.226562 C787.453125,898.763024 787.273439,899.276039 786.914062,899.765625 L785.726562,901.523438 L787.664062,900.882812 C788.205732,900.66927 788.718748,900.645833 789.203125,900.8125 C789.343751,900.864584 789.48177,900.947916 789.617188,901.0625 C789.898439,901.338543 790.039062,901.617186 790.039062,901.898438 C790.039062,901.98698 790.023438,902.07552 789.992188,902.164062 C789.924479,902.403647 789.759116,902.574218 789.496094,902.675781 C789.233072,902.777344 789.178385,902.951822 789.332031,903.199219 C789.485678,903.446616 789.505209,903.749998 789.390625,904.109375 C789.348958,904.265626 789.263021,904.401041 789.132812,904.515625 C788.903645,904.687501 788.664064,904.773438 788.414062,904.773438 C788.283854,904.773438 788.148438,904.747396 788.007812,904.695312 C787.585935,904.554687 787.22396,904.268231 786.921875,903.835938 L785.695312,902.070312 C785.856772,903.747404 785.651045,905.213535 785.078125,906.46875 L784.515625,906.46875 C785.223962,905.213535 785.500001,903.747404 785.34375,902.070312 L784.117188,903.835938 C783.809894,904.268231 783.447919,904.554687 783.03125,904.695312 C782.890624,904.747396 782.755209,904.773438 782.625,904.773438 C782.374999,904.773438 782.138022,904.687501 781.914062,904.515625 C781.778645,904.401041 781.6875,904.265626 781.640625,904.109375 C781.531249,903.749998 781.553385,903.446616 781.707031,903.199219 C781.860678,902.951822 781.805991,902.777344 781.542969,902.675781 C781.279947,902.574218 781.114584,902.403647 781.046875,902.164062 C781.015625,902.07552 781,901.989584 781,901.90625 C781,901.61979 781.140624,901.338543 781.421875,901.0625 C781.557292,900.947916 781.695312,900.864584 781.835938,900.8125 C782.315107,900.645833 782.828122,900.66927 783.375,900.882812 L785.34375,901.539062 Z" id="☘︎"></path>
        </g>
    </g>
</svg>
