 <svg width="29px" height="29px" viewBox="0 0 29 29" version="1.1" xmlns="http://www.w3.org/2000/svg" xmlns:xlink="http://www.w3.org/1999/xlink">
    <defs></defs>
    <g id="R2" stroke="none" stroke-width="1" fill="none" fill-rule="evenodd">
        <g id="1440_HP_v2-1" transform="translate(-215.000000, -3348.000000)" fill="#000000" fill-rule="nonzero">
            <g id="Group-4" transform="translate(60.000000, 3347.000000)">
                <g id="noun_Pencil_968432" transform="translate(155.000000, 0.000000)">
                    <path d="M23.603515,1.0009765 C23.1174225,1.001289 22.6333988,1.17763687 22.2802738,1.53076175 L20.529785,3.28125 L18.7451175,5.065918 L2.83203125,20.9765625 C2.79828125,21.0103125 2.78134763,21.0513087 2.75634763,21.0913087 C2.61884763,21.1663087 2.50849613,21.2913862 2.45849613,21.4526362 L0.029296875,29.1870112 C-0.040703125,29.4095112 0.019296875,29.6543362 0.185546875,29.8193362 C0.304296875,29.9368362 0.4625,30 0.625,30 C0.69,30 0.755371125,29.9907537 0.817871125,29.9707025 L8.6596675,27.4291987 C8.7834175,27.3891987 8.8800775,27.3081612 8.9550775,27.2119137 C8.9763275,27.1956637 9.00099625,27.1879687 9.02099625,27.1679687 L24.93164,11.2573237 L28.4667975,7.7197265 C29.1980475,6.98597662 29.1980463,5.79716812 28.4667975,5.065918 L24.93164,1.53076175 C24.57789,1.17638675 24.0896088,1.00066412 23.603515,1.0009765 Z M23.603515,2.2387695 C23.7653913,2.2387695 23.9291025,2.29642575 24.0478513,2.41455075 L27.5830075,5.949707 C27.8267575,6.193457 27.8267563,6.58974612 27.5830075,6.83349612 L26.2744138,8.14208987 L21.8554688,3.7231445 L23.1640625,2.41455075 C23.2815625,2.29642575 23.44164,2.2387695 23.603515,2.2387695 Z M20.97168,4.60693362 L25.390625,9.02587875 L24.4897463,9.92919875 L22.2802738,7.71728512 L20.06836,5.51025387 L20.97168,4.60693362 Z M19.18457,6.394043 L20.06836,7.277832 L5.7299805,21.6162112 L4.29199225,21.28418 L19.18457,6.394043 Z M20.9521488,8.16162112 L21.396485,8.60351562 L21.8383788,9.04541 L7.5,23.3813475 L6.55273438,23.42041 L6.55273438,22.561035 L20.9521488,8.16162112 Z M22.7197263,9.92919875 L23.603515,10.8129887 L8.80859375,25.60791 L8.4594725,24.1870112 L22.7197263,9.92919875 Z M3.4765625,22.37793 L5.30273438,22.8002925 L5.30273438,24.0698237 C5.30273438,24.2398237 5.3706645,24.405235 5.493164,24.521485 C5.61566413,24.6402337 5.78839838,24.6985737 5.9521485,24.6948237 L7.28271488,24.6411137 L7.7221675,26.416015 L4.76074225,27.3754887 C4.73074213,27.2917387 4.68664088,27.2122462 4.61914063,27.1459962 L2.8515625,25.3784175 C2.7740625,25.3009175 2.68175788,25.2558062 2.58300775,25.2270512 L3.4765625,22.37793 Z M2.1875,26.4819337 L3.49365238,27.7880862 L1.58203125,28.4057612 L2.1875,26.4819337 Z" id="Shape"></path>
                </g>
            </g>
        </g>
    </g>
</svg>
        