<svg xmlns="http://www.w3.org/2000/svg">

    <symbol id="logo"
            viewBox="0 0 60 60">
        <defs></defs>
        <g id="R2"
           stroke="none"
           stroke-width="1"
           fill="none"
           fill-rule="evenodd">
            <g id="1440_HP_v2-1"
               transform="translate(-60.000000, -60.000000)">
                <g id="Group-46"
                   transform="translate(60.000000, 60.000000)">
                    <g id="Group-3"
                       transform="translate(0.000000, 0.304186)">
                        <polygon id="Clip-2"
                                 points="0 0.0446511628 59.9554386 0.0446511628 59.9554386 59.6511628 0 59.6511628">
                        </polygon>
                        <path d="M29.9774035,1.31633721 C14.1535439,1.31633721 1.27985965,14.1158721 1.27985965,29.8477326 C1.27985965,45.5802907 14.1535439,58.3787791 29.9774035,58.3787791 C45.8023158,58.3787791 58.6752982,45.5802907 58.6752982,29.8477326 C58.6752982,14.1158721 45.8023158,1.31633721 29.9774035,1.31633721 M29.9774035,59.6513372 C13.4472281,59.6513372 -0.000140350877,46.2814535 -0.000140350877,29.8477326 C-0.000140350877,13.4143605 13.4472281,0.0444767442 29.9774035,0.0444767442 C46.5079298,0.0444767442 59.9556491,13.4143605 59.9556491,29.8477326 C59.9556491,46.2814535 46.5079298,59.651686 29.9774035,59.6513372"
                              id="Fill-1"
                              fill="#231F20"></path>
                    </g>
                    <path d="M29.1557193,28.9250233 C29.1557193,30.7846744 28.7599298,32.3097907 27.968,33.5007209 C27.0753684,34.8503721 25.7760702,35.5292093 32.068,35.5292093 C22.0788772,35.5292093 20.6988772,34.6822326 19.928,32.9851395 C19.3985263,31.8130465 19.1357193,30.027 19.1357193,27.6238605 L19.1357193,15.9346744 C19.1357193,14.8647907 19.428,13.7959535 20.0199298,12.7236279 C20.9111579,11.0875814 22.2616842,10.2723488 32.068,10.2723488 C25.9967719,10.2723488 27.3799298,10.9982791 28.2129123,12.451186 C28.8813333,13.5643256 29.1943158,15.0472326 29.1557193,16.9054884 C29.1557193,17.5107209 29.1437895,17.9732791 29.1263256,18.2980465 C29.1055439,18.6200233 28.9522105,18.8017674 28.668,18.8432791 C28.3841404,18.884093 27.8764211,18.8921163 27.1469474,18.871186 C26.1301053,18.832814 25.6750175,18.8122326 25.7760702,18.8122326 C25.4090526,18.8122326 25.2171228,18.6416512 25.1957193,18.2980465 L25.1957193,16.1481628 C25.0753684,15.0971163 32.6999298,14.5731628 32.068,14.5731628 C23.2367719,14.5731628 22.8206316,16.3710698 22.8206316,19.9626977 L22.8206316,28.5639767 C22.8206316,29.129093 22.9002807,29.6638605 23.0627368,30.1679302 C23.288,30.8760698 23.6213333,31.2280465 32.068,31.2280465 C32.8620351,31.2280465 25.2581754,30.1679302 25.2581754,28.049093 L25.2581754,27.1996744 C25.2381754,26.8585116 25.2263256,26.656186 25.2263256,26.5937442 C25.2263256,26.2323488 25.368,26.0492093 25.6515088,26.0492093 C26.9339649,26.0492093 27.9476491,26.0614186 28.7009825,26.0823488 C29.0058947,26.0823488 29.1557193,26.2504884 29.1557193,26.5937442 C29.1767719,27.1201395 29.1767719,27.8980465 29.1557193,28.9250233"
                          id="Fill-4"
                          fill="#231F20"></path>
                    <polygon id="Fill-6"
                             fill="#231F20"
                             points="12.8643256 17.3228837 13.8326667 17.3228837 15.6067018 19.5085814 15.6172281 19.5085814 15.6172281 17.3228837 16.586 17.3228837 16.586 20.9478837 15.6172281 20.9478837 13.843193 18.678 13.8326667 18.678 13.8326667 20.9478837 12.8643256 20.9478837">
                    </polygon>
                    <polygon id="Fill-8"
                             fill="#231F20"
                             points="12.865614 22.546814 14.0284211 22.546814 14.7252632 23.5549535 15.4232561 22.546814 16.5849123 22.546814 15.2105263 32.4748372 15.2105263 26.2542558 14.3203509 26.2542558 14.3203509 32.4748372">
                    </polygon>
                    <path d="M15.9945614,28.9328488 C15.7847368,28.643686 15.4447368,28.4926395 15.0942105,28.4926395 C14.4661404,28.4926395 14.0426316,28.9713242 14.0426316,29.5796163 C14.0426316,30.1995 14.4707018,30.6470581 15.11,30.6470581 C15.4447368,30.6470581 15.7801754,30.4858953 15.9945614,30.2313242 L15.9945614,31.4539186 C15.6538596,31.5578721 15.4078947,31.6360116 15.0892982,31.6360116 C14.5391228,31.6360116 14.0159649,31.4277558 13.6075439,31.0579884 C13.172807,30.6676395 12.9742105,30.1572907 12.9742105,29.5750814 C12.9742105,29.0396163 13.1784211,28.5320349 13.555614,28.1392674 C13.9426316,27.743686 14.5026316,27.5040349 15.0570175,27.5040349 C15.3875439,27.5040349 15.6907018,27.5769419 15.9945614,27.7018256 L15.9945614,28.9328488 Z"
                          id="Fill-10"
                          fill="#231F20"></path>
                    <path d="M17.5325614,41.2065349 C18.0069474,41.2065349 18.3964211,41.307 18.6992281,41.506186 C19.045193,41.7318837 19.2174737,42.0597907 19.2174737,42.4895581 C19.2174737,42.9915349 19.0013333,43.3407209 18.5687018,43.5353721 C18.2697544,43.6682791 17.813614,43.734907 17.2006316,43.734907 L14.2167719,43.7352558 C13.9441404,43.7352558 13.6711579,43.6606047 13.3978326,43.512 C12.9806316,43.2859535 12.7718596,42.9458372 12.7718596,42.4902558 C12.7718596,42.0032791 12.9574737,41.6551395 13.328,41.4451395 C13.6115088,41.2759535 13.990807,41.1964186 14.4644912,41.2065349 C14.6188772,41.2065349 14.7378326,41.2096744 14.8195789,41.2142093 C14.902386,41.2197907 14.9487018,41.2581628 14.9592281,41.3300233 C14.9694035,41.4018837 14.9718596,41.5292093 14.9669474,41.7144419 C14.9571228,41.9701395 14.9515088,42.0856047 14.9515088,42.0597907 C14.9515088,42.1522326 14.9076491,42.2007209 14.8195789,42.2056047 L14.2711579,42.2056047 C14.0030877,42.2366512 13.8694035,42.331186 13.8694035,42.4902558 C13.8694035,42.6995581 14.3276491,42.8052558 15.325193,42.804907 L17.4402807,42.804907 C17.5841404,42.804907 17.7206316,42.7843256 17.8494035,42.7438605 C18.0304561,42.687 18.1202807,42.6029302 18.1202807,42.4895581 C18.1202807,42.2903721 17.8494035,42.1902558 17.3087018,42.1902558 L17.0922105,42.1902558 C17.0048421,42.1951395 16.953614,42.1975814 16.9378326,42.1975814 C16.845193,42.1975814 16.7985263,42.1623488 16.7985263,42.0904884 C16.7985263,41.7674651 16.8013333,41.5117674 16.8065965,41.3223488 C16.8065965,41.3252558 16.8497544,41.2065349 16.9378326,41.2065349 C17.0715088,41.2016512 17.2694035,41.2016512 17.5325614,41.2065349"
                          id="Fill-12"
                          fill="#231F20"></path>
                    <path d="M17.0355439,38.7871744 C16.6060702,38.7920581 16.3646667,38.8157791 16.1941404,38.8318256 C15.9278326,38.856593 15.5274737,38.8893837 15.5274737,38.9668256 C15.5274737,39.0363242 15.8941404,39.0739186 16.1987018,39.1199651 C16.3639649,39.1450814 16.7271228,39.1789186 17.0355439,39.1900814 C17.0520351,39.1914767 17.0541404,39.1227558 17.0625614,39.0690349 C17.0702807,39.015314 17.0716842,38.9661279 17.0664211,38.9193837 C17.0611579,38.8677558 17.0565965,38.7871744 17.0355439,38.7871744 M19.1681754,37.5055465 C19.1994035,37.5006628 19.2144912,37.5320349 19.2144912,37.5746163 L19.2144912,37.9743837 C19.2095789,38.1693837 19.2074737,38.3378721 19.2074737,38.481593 C19.2074737,38.5272907 19.0397544,38.586593 18.7050175,38.6581047 C18.4520351,38.7097326 18.2358947,38.7477558 18.055193,38.7732209 C18.0194035,38.7788023 18.0011579,38.8070581 18.0011579,38.8576395 L18.0011579,39.1576395 C18.0011579,39.1939186 18.0201053,39.2163242 18.0558947,39.2263605 C18.3692281,39.2731047 18.7316842,39.3341512 19.1443158,39.4113242 C19.1913333,39.4314767 19.2144912,39.4541512 19.2144912,39.480314 L19.2144912,40.425314 C19.2144912,40.5076395 19.1843158,40.5407791 19.1218596,40.5254302 C18.0681754,40.3506628 17.0116842,40.176593 15.9530877,40.0028721 C13.9176491,39.6596163 12.898,39.4541512 12.8927368,39.3878721 C12.8772982,39.1113242 12.8772982,38.8349651 12.8927368,38.558686 C12.898,38.496593 13.9183509,38.3075233 15.9530877,37.9893837 C17.0326667,37.8257791 18.0969474,37.6642674 19.1681754,37.5055465"
                          id="Fill-14"
                          fill="#231F20"></path>
                    <path d="M27.1753333,40.3267442 C27.4458596,40.3215116 25.4581404,40.2282558 21.2125263,40.2080233 C21.0774386,40.2080233 21.0016491,40.1665116 20.9858596,40.084186 C20.9444561,39.835814 20.9444561,39.5752326 20.9858596,39.3013953 C21.0016491,39.2082558 21.0560351,39.1489535 21.1500702,39.1227907 C21.9297193,38.952907 22.8128772,38.7533721 23.7998947,38.5266279 C23.8781404,38.5053488 23.9170877,38.4739535 23.9170877,38.4334884 C23.9170877,38.402093 23.8627018,38.3867442 23.7542807,38.3867442 L22.6532281,38.3867442 C22.0328772,38.3815116 21.5497193,38.3790698 21.2030526,38.3790698 C21.0995439,38.3790698 21.0353333,38.3138372 21.0093684,38.1854651 C20.9886667,38.0968605 20.9816491,37.9806977 20.9858596,37.8359302 C20.9914737,37.6506977 20.9935789,37.5443023 20.9935789,37.5188372 C20.9886667,37.4148837 21.0479649,37.3611628 21.1728772,37.3559302 C21.8984912,37.3353488 22.9925263,37.3304651 32.4542807,37.3402326 C25.8697193,37.3506977 26.7690175,37.3688372 27.1525263,37.395 C27.2770877,37.4051163 27.342,37.4386047 27.3469123,37.4954651 C27.3521754,37.6196512 27.3521754,37.7874419 27.3469123,37.999186 C27.336386,38.2573256 27.3311228,38.3968605 27.3311228,38.4177907 C27.3311228,38.49 27.276386,38.5363953 27.167614,38.5573256 C25.9100702,38.8151163 25.0995439,38.9965116 32.7349825,39.0994186 C32.5953333,39.1412791 32.5251579,39.1744186 32.5251579,39.2005814 C32.5251579,39.2365116 32.6058596,39.3294186 32.7669123,39.2393023 C25.1897193,39.2187209 25.9918326,39.2082558 27.1753333,39.2082558 C27.2949825,39.2082558 27.3521754,39.2598837 27.3469123,39.3631395 L27.3469123,40.084186 C27.342,40.1926744 27.2844561,40.3267442 27.1753333,40.3267442"
                          id="Fill-16"
                          fill="#231F20"></path>
                    <path d="M21.1550877,47.3815465 C21.0603509,47.376314 21.0133333,47.3086395 21.0133333,47.1788721 C21.0133333,47.2102674 21.0077193,46.8673605 20.997193,46.1508488 C20.9870175,45.7151512 20.9922807,45.4109651 21.0133333,45.3203837 C21.0235088,45.1618953 21.0859649,45.1231744 21.2010526,45.1231744 C23.8533333,45.0973605 25.8480702,45.089686 27.1849123,45.0998023 C27.3315789,45.0998023 27.3968421,45.1465465 27.3810526,45.3203837 C27.365614,45.3488721 27.365614,45.6289884 27.3810526,46.0807326 C27.385614,46.1487558 27.3603509,46.1871279 27.302807,46.1973242 C27.2554386,46.1923605 27.2063158,46.1899186 27.154386,46.1899186 C26.9325614,46.2049186 26.2178947,46.208407 25.034386,46.1973242 C23.7463158,46.1871279 22.8529825,46.1899186 22.3522807,46.2049186 C22.2322807,46.2108488 22.1698326,46.2701512 22.1645614,46.3849186 L22.1645614,47.1942209 C22.1645614,47.3187558 22.117193,47.3815465 22.0232561,47.3815465 C21.8385965,47.3864302 21.5491228,47.3864302 21.1550877,47.3815465"
                          id="Fill-18"
                          fill="#231F20"></path>
                    <path d="M23.1789825,42.8848256 C23.6123158,42.8793242 23.8554737,42.8551744 32.0277544,42.8391279 C32.2965263,42.8140116 32.700386,42.7808721 32.700386,42.7034302 C32.700386,42.633314 32.3298596,42.5949419 32.0228421,42.5485465 C23.8568772,42.5230814 23.4902105,42.4888953 23.1789825,42.4777326 C23.1632912,42.4770349 23.160386,42.545407 23.1523158,42.5998256 C23.1443256,42.6538953 23.143193,42.7044767 23.1484561,42.7512209 C23.1530175,42.8025 23.1579298,42.8848256 23.1789825,42.8848256 M21.0284561,44.1769186 C20.9968772,44.1821512 20.9814386,44.1584302 20.9814386,44.1071512 L20.9814386,43.7038953 C20.9863509,43.5078488 20.988807,43.3372674 20.988807,43.1925 C20.988807,43.1464535 21.1579298,43.0868023 21.4958326,43.014593 C21.7502105,42.9629651 21.968807,42.9238953 22.1502105,42.8977326 C22.1870526,42.8931977 22.2049474,42.8649419 22.2049474,42.8126163 L22.2049474,42.5108721 C22.2049474,42.474593 22.1863509,42.4515698 22.1498596,42.4411047 C21.8337193,42.3947093 21.4684561,42.3326163 21.0523158,42.2551744 C21.0052982,42.2343242 20.9814386,42.2112209 20.9814386,42.185407 L20.9814386,41.231686 C20.9814386,41.1490116 21.0126667,41.1158721 21.0751228,41.1308721 C22.1375789,41.3073837 23.203193,41.4825 32.2709123,41.6579651 C26.3238947,42.0047093 27.3526667,42.2112209 27.3579298,42.2785465 C27.3730175,42.5572674 27.3730175,42.8359884 27.3579298,43.115407 C27.3526667,43.1771512 26.323193,43.368314 32.2709123,43.6888953 C23.1902105,43.8535465 22.108807,44.0164535 21.0284561,44.1769186"
                          id="Fill-20"
                          fill="#231F20"></path>
                    <path d="M37.8925263,44.2738605 C38.3581404,44.2738605 38.7255088,44.3932651 38.9953333,44.6293256 C39.264807,44.8654884 39.3995439,45.1996744 39.3995439,45.6304884 C39.3995439,46.004093 39.2546316,46.3225814 38.9634035,46.584907 C38.6514737,46.8632791 38.3269123,46.9972326 37.7500702,46.9864186 C37.6655088,46.9864186 37.527614,46.9836279 37.3374386,46.9787442 C37.2262105,46.9738605 37.1704211,46.944907 37.1704211,46.8925814 C37.1704211,46.8402558 37.1651579,46.6916512 37.1549825,46.4467674 C37.1444561,46.2022326 37.139193,46.0543256 37.139193,46.002 C37.139193,45.9486279 37.2079649,45.9232651 37.3451579,45.9232651 L37.7335789,45.9232651 C38.1149825,45.9232651 38.3051579,45.8202558 38.3051579,45.6144419 C38.3051579,45.4522326 38.1760351,45.3650233 37.9167368,45.3545581 L37.4725263,45.3388605 C37.3405965,45.3339767 37.1360351,45.4703721 36.8612982,45.7487442 C36.3960351,46.2168837 36.1339298,46.4743256 36.0756842,46.5221163 C35.747614,46.8004884 35.4497193,46.9396744 35.1795439,46.9396744 L34.5051579,46.9396744 C34.0321053,46.9396744 33.6409474,46.8266512 33.3546316,46.6006047 C33.0430526,46.3585116 32.882,46.0068837 32.8711228,45.5439767 C32.8658596,45.1658372 32.9977895,44.8626977 33.267614,44.6373488 C33.5216491,44.4266512 33.8574386,44.3216512 34.2749825,44.3216512 L35.0609474,44.3216512 C35.1398947,44.3216512 35.182,44.3502558 35.1879649,44.4081628 C35.2034035,44.5606047 35.2034035,44.847 35.1879649,45.2680465 C35.1879649,45.3364186 35.147614,45.3706047 35.0686667,45.3706047 C34.9469123,45.3754884 34.7353333,45.3706047 34.4335789,45.3545581 C34.3237544,45.3496744 34.2132281,45.3692093 34.1051579,45.4138605 C33.996386,45.4588605 33.9423509,45.5167674 33.9423509,45.5910698 C33.9423509,45.7965349 34.1167368,45.8987442 34.4651579,45.8987442 L34.8774386,45.8987442 C35.042,45.8987442 35.2742807,45.7595581 35.5760351,45.4804884 C35.8567368,45.217814 36.136386,44.9558372 36.4170877,44.6921163 C36.7662105,44.4137442 37.0756842,44.2738605 37.3451579,44.2738605 L37.8925263,44.2738605 Z"
                          id="Fill-22"
                          fill="#231F20"></path>
                    <path d="M33.8904912,40.7543372 C33.9645263,40.7543372 34.0013684,40.799686 34.0013684,40.8889884 C34.0013684,40.9256163 33.9985614,41.0041047 33.994,41.1328023 L33.994,41.4091047 C33.994,41.5200349 34.0336491,41.5744535 34.1125965,41.5744535 L39.2364561,41.5587558 C39.3217193,41.5587558 39.3666316,41.588407 39.3718947,41.6459651 C39.3982105,41.8350349 39.3957544,42.1343372 39.3638326,42.5445698 C39.3582105,42.6129419 39.3132982,42.6467791 39.2287368,42.6467791 L34.1048772,42.6551512 C34.0304912,42.6551512 33.994,42.6865465 33.994,42.7500349 L33.994,43.3329419 C33.9880351,43.4177093 33.9508421,43.4595698 33.8832211,43.4595698 C33.9403158,43.4595698 33.8323256,43.4648023 33.556807,43.4756163 C33.3775088,43.4860814 33.2371579,43.4808488 33.1371579,43.4595698 C32.9992632,43.4386395 32.9304912,43.3908488 32.9304912,43.317593 C32.9255789,42.6659651 32.9255789,41.8531744 32.9304912,40.8806163 C32.9304912,40.8070116 32.9778596,40.7679419 33.0729474,40.7623605 C33.4010175,40.7523242 33.6736491,40.7494535 33.8904912,40.7543372"
                          id="Fill-32"
                          fill="#231F20"></path>
                    <path d="M34.3903256,38.222686 C34.0411228,38.222686 33.8744561,38.3388488 33.8905965,38.5697791 C33.9011228,38.6232535 33.906386,38.6618721 33.906386,38.6883837 C33.906386,38.7354767 33.9505965,38.7591977 34.0404211,38.7591977 L35.4298947,38.7591977 C35.577614,38.7591977 35.6541053,38.7229186 35.6590175,38.6486163 C35.6649825,38.6232535 35.6649825,38.591407 35.6590175,38.5537326 C35.6590175,38.439314 35.6007719,38.3594302 35.4849825,38.3175698 C35.3155088,38.2544302 34.9505965,38.222686 34.3903256,38.222686 M39.2295439,37.0868721 C39.3453333,37.0610581 39.406386,37.0868721 39.4112982,37.1660581 C39.4221754,37.2661744 39.4197193,37.5735 39.4035789,38.0887326 C39.4035789,38.1469884 39.332,38.1811744 39.1888421,38.1912907 C38.8303256,38.2174535 38.4303256,38.2303605 37.9912982,38.2303605 C37.1927018,38.2303605 36.7937544,38.3703242 36.7937544,38.6486163 C36.7832281,38.685593 36.7832281,38.7173372 36.7937544,38.7435 C36.8098947,38.7804767 36.8681404,38.7979186 36.9684912,38.7979186 C37.7983158,38.7979186 38.5281404,38.801407 39.157614,38.8066395 C39.2951579,38.8066395 39.3667368,38.835593 39.372,38.8931512 C39.4035789,39.1771047 39.4084912,39.4478023 39.3881404,39.705593 C39.3821754,39.7687326 39.3053333,39.7997791 39.1583158,39.7997791 L33.057614,39.7997791 C32.9621754,39.7997791 32.914807,39.7530349 32.914807,39.6571047 C32.914807,39.3668721 32.912,38.9691977 32.9070877,38.4668721 C32.9070877,38.1389651 32.9751579,37.8612907 33.1123509,37.6338488 C33.2656842,37.3854767 33.469193,37.2609419 33.7225263,37.2609419 L35.2842807,37.2686163 C35.5425263,37.2686163 35.7642807,37.344314 35.949193,37.4981512 C36.0814737,37.6032535 36.1712982,37.7207093 36.2186667,37.8522209 C36.2341053,37.8947791 36.2503256,37.9150116 36.2660351,37.9150116 C36.2765614,37.9150116 36.2903256,37.8947791 36.3056842,37.8522209 C36.3372632,37.7532535 36.4035789,37.6471047 36.5035789,37.5361744 C36.7197193,37.2895465 37.3256842,37.1660581 38.0807719,37.1660581 C38.6137544,37.1660581 38.9969123,37.1398953 39.2295439,37.0868721"
                          id="Fill-26"
                          fill="#231F20"></path>
                    <path d="M41.2501754,39.5631977 C41.1887719,39.5631977 41.1547368,39.521686 41.1494737,39.4393605 C41.1133333,38.7277326 41.1189474,38.0813372 41.1652632,37.4991279 C41.1705263,37.4419186 41.2192982,37.4140116 41.3122807,37.4140116 L47.3635088,37.4140116 C47.4207018,37.4140116 47.4491228,37.4412209 47.4491228,37.4987791 C47.4540351,37.8940116 47.4512281,38.5327326 47.4414035,39.4170349 C47.4414035,39.4986628 47.4105263,39.5398256 47.3480702,39.5398256 L46.9298326,39.5398256 C46.6870175,39.534593 46.5329825,39.5321512 46.4691228,39.5325 C46.4038596,39.5325 46.3722807,39.5038953 46.3722807,39.4477326 L46.3722807,38.5679651 C46.3722807,38.4915698 46.3438596,38.4538953 46.2866667,38.4538953 C46.2603509,38.4538953 46.0775439,38.4511047 45.7364912,38.4462209 C45.4470175,38.4409884 45.2305263,38.4409884 45.085614,38.4462209 C45.0291228,38.4462209 44.9954386,38.4765698 44.985614,38.5379651 C44.9698326,38.6447093 44.9666667,38.8812209 44.9775439,39.3278488 C44.9775439,39.3141279 44.9466667,39.350407 44.8845614,39.3549419 C44.7912281,39.3601744 44.6185965,39.3577326 44.3652632,39.3476163 C44.0705263,39.3371512 43.8975439,39.3322674 43.8459649,39.3322674 C43.7733333,39.3322674 43.7378947,39.3036628 43.7378947,39.3271512 L43.7378947,38.5536628 C43.7378947,38.5027326 43.6989474,38.4713372 43.6232561,38.4615698 C43.4073684,38.4361047 43.0014035,38.4308721 42.4035088,38.4462209 C42.337193,38.4462209 42.2989474,38.4926163 42.2887719,38.5847093 C42.2887719,38.7849419 42.2887719,39.0671512 42.2880702,39.4323837 C42.2887719,39.5140116 42.2547368,39.5555233 42.1877193,39.5555233 C41.7691228,39.5555233 41.4568421,39.5579651 41.2501754,39.5631977"
                          id="Fill-28"
                          fill="#231F20"></path>
                    <path d="M41.2501754,42.6291628 C41.1887719,42.6291628 41.1547368,42.5876512 41.1494737,42.5053256 C41.1133333,41.7940465 41.1189474,41.1469535 41.1652632,40.5647442 C41.1705263,40.5082326 41.2192982,40.4796279 41.3122807,40.4796279 L47.3635088,40.4796279 C47.4207018,40.4796279 47.4491228,40.5082326 47.4491228,40.5643953 C47.4540351,40.9599767 47.4512281,41.5993953 47.4414035,42.4826512 C47.4414035,42.5649767 47.4105263,42.6054419 47.3480702,42.6054419 L46.9298326,42.6054419 C46.6870175,42.6005581 46.5329825,42.5981163 46.4691228,42.5981163 C46.4038596,42.5981163 46.3722807,42.5698605 46.3722807,42.5133488 L46.3722807,41.6342791 C46.3722807,41.5568372 46.3438596,41.5198605 46.2866667,41.5198605 C46.2603509,41.5198605 46.0775439,41.5170698 45.7364912,41.5118372 C45.4470175,41.5066047 45.2305263,41.5066047 45.085614,41.5118372 C45.0291228,41.5118372 44.9954386,41.542186 44.985614,41.6039302 C44.9698326,41.7106744 44.9666667,41.947186 44.9775439,42.3141628 C44.9775439,42.3804419 44.9466667,42.4156744 44.8845614,42.420907 C44.7912281,42.4257907 44.6185965,42.4233488 44.3652632,42.4128837 C44.0705263,42.4027674 43.8975439,42.3975349 43.8463158,42.3975349 C43.7733333,42.3975349 43.7378947,42.3692791 43.7378947,42.3127674 L43.7378947,41.6196279 C43.7378947,41.5683488 43.6992982,41.5376512 43.6232561,41.5268372 C43.4073684,41.5013721 43.0014035,41.4961395 42.4035088,41.5118372 C42.337193,41.5118372 42.2989474,41.5585814 42.2887719,41.6506744 C42.2887719,41.850907 42.2887719,42.1334651 42.2880702,42.4976512 C42.2887719,42.5799767 42.2547368,42.6211395 42.1877193,42.6211395 C41.7691228,42.6211395 41.4568421,42.6232326 41.2501754,42.6291628"
                          id="Fill-30"
                          fill="#231F20"></path>
                    <path d="M46.5034035,46.1127558 C46.4314737,46.1127558 46.3953333,46.0691512 46.3953333,45.9819419 C46.3953333,45.9456628 46.3977895,45.8689186 46.4034035,45.7510116 L46.4034035,45.4733372 C46.4034035,45.3655465 46.3641053,45.3114767 46.2869123,45.3114767 L41.282,45.3264767 C41.1988421,45.3264767 41.1546316,45.2985698 41.1497193,45.3220581 C41.1321053,45.0575233 41.1265614,44.7648488 41.1574386,44.363686 C41.1634035,44.297407 41.2065614,44.2639186 41.2897193,44.2639186 L46.2946316,44.2563242 C46.3669123,44.2563242 46.4034035,44.2255465 46.4034035,44.1638023 L46.4034035,43.5934535 C46.4079649,43.5114767 46.4444561,43.4706628 46.5118326,43.4706628 C46.4546316,43.4706628 46.5609474,43.4650814 46.8297193,43.4549651 C47.004807,43.4448488 47.1416491,43.4500814 47.3203256,43.4706628 C47.3742807,43.4905465 47.4412982,43.5372907 47.4412982,43.6095 C47.4465614,44.3254302 47.4465614,45.0393837 47.4412982,45.9892674 C47.4412982,46.0611279 47.3946316,46.0998488 47.302,46.1050814 C46.9812982,46.1151977 46.7156842,46.1179884 46.5034035,46.1127558"
                          id="Fill-32"
                          fill="#231F20"></path>
                    <path d="M41.3200702,32.4271163 C41.232,32.4574651 41.1853333,32.444907 41.1797193,32.3880465 L41.1797193,23.3268837 C41.1797193,23.2860698 41.2169123,23.2550233 41.2884912,23.234093 C41.5256842,23.1671163 42.0853333,23.0226977 42.9667368,22.8008372 C43.0495439,22.7795581 43.0937544,22.7642093 43.0993684,22.7537442 C43.0993684,22.7485116 43.054807,22.7432791 42.9667368,22.739093 C42.5958596,22.717814 42.0386667,22.7150233 41.2962105,22.7303721 C41.2190175,22.7303721 41.1797193,22.7021163 41.1797193,22.6456047 L41.1797193,21.8865349 C41.1797193,21.8195581 41.2295439,21.7857209 41.3277895,21.7857209 L47.3625263,21.7857209 C47.4355088,21.7857209 47.4712982,21.811186 47.4712982,21.862814 C47.4765614,22.0693256 47.4765614,22.347 47.4712982,22.6972326 C47.4670877,22.7485116 47.4303256,22.7743256 47.3625263,22.7743256 C46.4260351,22.7485116 45.8744561,22.7380465 45.7084912,22.7432791 C45.6723509,22.7432791 45.6541053,22.7509535 45.6541053,22.7666512 C45.6593684,22.7823488 45.6832281,22.794907 45.7322807,22.8050233 C46.0484912,22.8821163 46.5944561,23.0216512 47.3625263,23.2222326 C47.434807,23.3232651 47.4712982,23.2763023 47.4712982,23.3223488 C47.4667368,23.4409535 47.4670877,23.6083953 47.4716491,23.8326744 C47.4716491,32.0821163 47.4712982,32.2157209 47.4716491,32.2265349 C47.4716491,32.2980465 47.4355088,32.3343256 47.3625263,32.3343256 C47.3474386,32.3339767 47.332,32.3318837 47.3165614,32.3266512 C47.0944561,32.2188605 46.6183158,32.0123488 45.889193,23.7088605 C45.1390175,23.4001395 44.7484912,23.2504884 44.7179649,23.2613023 C43.8439298,23.549093 42.7105965,23.9380465 41.3200702,32.4271163"
                          id="Fill-34"
                          fill="#231F20"></path>
                    <path d="M41.2573684,27.4152209 C41.1959649,27.4152209 41.1615789,27.3740581 41.1570175,27.2910349 C41.1201754,26.5780116 41.1257895,25.9298721 41.1732561,25.3462674 C41.1777193,25.2890581 41.2261404,25.2611512 41.3201754,25.2611512 L47.3861404,25.2608023 C47.4429825,25.2611512 47.4710526,25.2890581 47.4710526,25.3455698 C47.4766667,25.7418488 47.4742105,26.3830116 47.4636842,27.2687093 C47.4636842,27.350686 47.4331579,27.3918488 47.3703509,27.3921977 L46.9514035,27.3921977 C46.7078947,27.3866163 46.5535088,27.3841744 46.4896491,27.3838256 C46.4327368,27.3838256 46.3921053,27.3562674 46.3921053,27.3001047 L46.3921053,26.4178953 C46.3921053,26.3415 46.3633333,26.3034767 46.3068421,26.3034767 C46.2805263,26.3034767 46.0966667,26.3003372 45.7552632,26.2958023 C45.4647368,26.2902209 45.3278947,26.2898721 45.1026316,26.2958023 C45.0454386,26.2958023 45.0117544,26.3265 45.0015789,26.3875465 C44.9861404,26.4946395 44.9840351,26.7321977 44.9938596,27.0995233 C44.9938596,27.1661512 44.9633333,27.2013837 44.9008772,27.2066163 C44.8078947,27.2118488 44.6345614,27.2090581 44.3805263,27.1989419 C44.0850877,27.1888256 43.9117544,27.183593 43.8601754,27.183593 C43.7868421,27.183593 43.7510526,27.1549884 43.7510526,27.0988256 L43.7510526,26.4039419 C43.7510526,26.3519651 43.712807,26.3212674 43.6359649,26.3111512 C43.4208772,26.2853372 43.0131579,26.2804535 42.4138596,26.2954535 C42.347193,26.2958023 42.3089474,26.3415 42.2984211,26.4346395 L42.2984211,27.2837093 C42.2984211,27.3660349 42.264386,27.4071977 42.1977193,27.4071977 C41.7777193,27.4071977 41.464386,27.4103372 41.2573684,27.4152209"
                          id="Fill-36"
                          fill="#231F20"></path>
                    <path d="M46.5472632,30.9291279 C46.4749825,30.9291279 46.4384912,30.8848256 46.4384912,30.7972674 C46.4384912,30.761686 46.4409474,30.6838953 46.4465614,30.5656395 L46.4465614,30.2879651 C46.4465614,30.1794767 46.407614,30.125407 46.3300702,30.125407 L41.3121754,30.1411047 C41.2293684,30.1411047 41.1855088,30.1125 41.1798947,30.0556395 C41.1539298,29.8707558 41.1567368,29.5773837 41.1879649,29.1755233 C41.1935789,29.1085465 41.2370877,29.075407 41.3205965,29.075407 L46.3377895,29.0677326 C46.4100702,29.0677326 46.4465614,29.0370349 46.4465614,28.9749419 L46.4465614,28.4031977 C46.4518326,28.3208721 46.487614,28.2800581 46.5556842,28.2800581 C46.4981404,28.2800581 46.604807,28.2751744 46.8735789,28.2643605 C47.0493684,28.254593 47.1869123,28.2594767 47.2851579,28.2800581 C47.4198947,28.3006395 47.4872632,28.3470349 47.4872632,28.4193242 C47.4928772,29.0569186 47.4928772,29.8526163 47.4872632,30.8052907 C47.4872632,30.8775 47.4403256,30.9151744 47.347614,30.9211047 C47.0258596,30.9312209 46.7595439,30.9336628 46.5472632,30.9291279"
                          id="Fill-38"
                          fill="#231F20"></path>
                    <path d="M39.1427018,27.5593256 C39.2304211,27.5593256 39.284807,27.5621163 39.3055088,27.5666512 C39.3669123,27.582 39.4009474,27.6130465 39.4062105,27.659093 C39.4114737,27.6800233 39.4041053,27.8506047 39.3883158,28.4666512 C39.3883158,28.5489767 39.3318326,28.5929302 39.2177895,28.597814 C39.0837544,28.6082791 38.8462105,28.6107209 38.5055088,28.6051395 C38.279193,28.6051395 37.9816491,28.6026977 37.6153333,28.597814 C37.2641053,28.5929302 37.0760351,28.5901395 37.0500702,28.5901395 C36.9423509,28.5901395 36.5830526,28.5814186 36.5167368,28.6016512 C36.4886667,28.6103721 36.3770877,28.6853721 37.004807,28.8304884 C37.2262105,28.8810698 37.6167368,28.9564186 38.1093684,29.0464186 C38.7142807,29.157 39.0577895,29.2093256 39.2058596,29.3238605 C39.3434035,29.2759535 39.3837544,29.3516512 39.3988421,29.4266512 C39.4146316,29.5009535 39.4062105,29.4238605 39.4062105,29.5679302 C39.4009474,29.7988605 39.3988421,29.692814 39.3988421,29.6879302 C39.3988421,29.7988605 39.3262105,29.8756047 39.1812982,29.9059535 C38.9381404,29.9575814 38.7911228,29.9806047 38.2897193,30.0754884 C37.7472632,30.1783953 37.0935789,30.3064186 37.0255088,30.3193256 C36.4718326,30.4229302 36.4746316,30.5342093 36.5216491,30.5460698 C36.5651579,30.5575814 36.8381404,30.5708372 37.0605965,30.5722326 C37.2318326,30.5729302 38.9795439,30.5826977 39.1869123,30.5774651 C39.3223509,30.5722326 39.3946316,30.6106047 39.4055088,30.6929302 L39.4062105,31.4387442 C39.4062105,31.5207209 39.3184912,31.5667674 39.1427018,31.5775814 C38.8367368,31.597814 38.4023509,31.6079302 37.8381404,31.6079302 C37.1918326,31.6079302 36.3251579,31.5925814 34.9984912,31.5618837 C33.9269123,31.5360698 33.3423509,31.5263023 33.3244561,31.5308372 C33.1977895,31.5360698 33.1560351,31.5339767 33.1203256,31.5235116 C33.0634035,31.507814 33.0377895,31.479907 33.0427018,31.4387442 C33.0634035,31.1610698 33.0683158,30.8697907 33.0581404,30.5610698 C33.0581404,30.5097907 33.1149825,30.4637442 33.2286667,30.4229302 C33.3883158,30.3664186 34.1953333,30.1316512 35.6560351,29.6851395 C35.7851579,29.6436279 35.9803256,29.594093 35.9803256,29.5686279 C35.9803256,29.5372326 35.7883158,29.491186 35.6584912,29.4556047 C35.0465614,29.2654884 34.2255088,29.0345581 33.1981404,28.737 C33.0890175,28.7063023 33.0377895,28.6473488 33.0427018,28.5601395 L33.0427018,27.7518837 C33.0427018,27.6800233 33.1149825,27.644093 33.2595439,27.644093 C34.1549825,27.6235116 35.0497193,27.6029302 35.9451579,27.582 C37.432807,27.5516512 38.4907719,27.5439767 39.1427018,27.5593256"
                          id="Fill-40"
                          fill="#231F20"></path>
                    <path d="M34.5108772,21.1918605 C34.1701754,21.1918605 34.0080702,21.3045349 34.0235088,21.5298837 C34.0336842,21.5818605 34.0383256,21.6202326 34.0383256,21.6456977 C34.0383256,21.692093 34.0821053,21.7147674 34.1694737,21.7147674 L35.5263158,21.7147674 C35.6694737,21.7147674 35.7445614,21.679186 35.7491228,21.6076744 C35.7550877,21.5818605 35.7550877,21.550814 35.7491228,21.5148837 C35.7491228,21.4022093 35.6929825,21.3251163 35.5796491,21.2839535 C35.4147368,21.2225581 35.0578947,21.1918605 34.5108772,21.1918605 M39.2340351,20.0832558 C39.3473684,20.0577907 39.4063158,20.0832558 39.4112281,20.1603488 C39.4221053,20.2580233 39.4196491,20.5576744 39.4045614,21.0603488 C39.4045614,21.1172093 39.334386,21.1503488 39.1950877,21.1604651 C38.8442105,21.1866279 38.454386,21.199186 38.0259649,21.199186 C37.3263158,21.199186 36.8568421,21.3352326 36.8568421,21.6076744 C36.8463158,21.6432558 36.8463158,21.6739535 36.8568421,21.6994186 C36.8726316,21.7356977 36.9291228,21.7538372 37.0273684,21.7538372 C37.8375439,21.7538372 38.5494737,21.7562791 39.1638596,21.7611628 C39.2978947,21.7611628 39.3680702,21.7894186 39.3729825,21.8459302 C39.4045614,22.122907 39.4094737,22.3873256 39.3884211,22.6388372 C39.3831579,22.7002326 39.3080702,22.7312791 39.1645614,22.7312791 L33.2101754,22.7312791 C33.1168421,22.7312791 33.0712281,22.6845349 33.0712281,22.5917442 C33.0712281,22.3074419 33.0684211,21.9198837 33.0635088,21.4297674 C33.0635088,21.1098837 33.1301754,20.8384884 33.2638596,20.6166279 C33.4136842,20.374186 33.6122807,20.2527907 33.8596491,20.2527907 L35.3831579,20.2601163 C35.6350877,20.2601163 35.8522807,20.3347674 36.0326316,20.4833721 C36.1617544,20.5862791 36.3291228,20.7013953 36.2950877,20.8297674 C36.3105263,20.8709302 36.3266667,20.8911628 36.3414035,20.8911628 C36.3526316,20.8911628 36.365614,20.8709302 36.3803509,20.8297674 C36.4115789,20.7327907 36.4764912,20.6302326 36.5740351,20.522093 C36.7849123,20.2806977 37.2983256,20.1603488 38.1129825,20.1603488 C38.6336842,20.1603488 39.0073684,20.1348837 39.2340351,20.0832558"
                          id="Fill-42"
                          fill="#231F20"></path>
                    <path d="M37.2305263,32.9457674 C36.7992982,32.9506512 36.557193,32.9747209 36.3870175,32.9907674 C36.12,25.015186 35.7185965,25.0483256 35.7185965,25.1257674 C35.7185965,25.195186 36.0863158,25.233907 36.3919298,25.2796047 C36.5561404,25.3040233 36.9214035,25.3382093 37.2305263,25.3500698 C37.3263158,25.3507674 37.3287719,25.2823953 37.2564912,25.2290233 C37.2642105,25.173907 37.265614,25.1250698 37.2603509,25.0783256 C37.2550877,25.0266977 37.2505263,32.9457674 37.2305263,32.9457674 M39.3666667,23.6623953 C39.397193,23.6575116 39.4126316,23.680186 39.4126316,23.7311163 L39.4126316,32.1315814 C39.4073684,32.3269302 39.405614,32.4961163 39.405614,32.6394884 C39.405614,32.6858837 39.2375439,32.7448372 38.9010526,32.816 C38.6491228,32.8676279 38.4315789,32.9063488 38.2515789,32.931814 C38.2154386,32.9373953 38.1975439,32.9656512 38.1975439,25.0165814 L38.1975439,25.3169302 C38.1975439,25.3528605 38.2161404,25.3762326 38.2522807,25.386 C38.565614,25.4327442 38.9287719,25.4937907 39.3432561,25.5708837 C39.3894737,25.5914651 39.4126316,25.6148372 39.4126316,25.6403023 L39.4126316,26.5870465 C39.4126316,26.6686744 39.3814035,26.7028605 39.32,26.686814 C38.2638596,26.5127442 37.2059649,26.3383256 36.145614,26.1635581 C34.1070175,25.8199535 33.0849123,25.6148372 33.0792982,25.5478605 C33.0645614,25.2708837 33.0645614,32.993907 33.0792982,32.7165814 C33.0849123,32.655186 34.1070175,32.4654186 36.145614,32.1465814 C37.2189474,23.9822791 38.2926316,23.8214651 39.3666667,23.6623953"
                          id="Fill-44"
                          fill="#231F20"></path>
                </g>
            </g>
        </g>

    </symbol>

    <symbol id="close"
            viewBox="0 0 256 256">
        <path
              d="M202.83,197.17a4,4,0,0,1-5.66,5.66L128,133.66,58.83,202.83a4,4,0,0,1-5.66-5.66L122.34,128,53.17,58.83a4,4,0,0,1,5.66-5.66L128,122.34l69.17-69.17a4,4,0,1,1,5.66,5.66L133.66,128Z">
        </path>
    </symbol>

    <symbol id="event"
            viewBox="0 12 116 58">
        <defs></defs>
        <g id="R2"
           stroke="none"
           stroke-width="1"
           fill="none"
           fill-rule="evenodd"
           font-family="PingFangSC-Semibold, PingFang SC"
           font-size="60"
           font-weight="500"
           line-spacing="60">
            <g id="1440_HP_v2-1-Copy-3"
               transform="translate(-172.000000, -3219.000000)"
               fill="none"
               stroke="currentColor"
               stroke-width="0.75">
                <text id="事件">
                    <tspan x="170"
                           y="3282">活動</tspan>
                </text>
            </g>
        </g>
    </symbol>

    <symbol id="smiles"
            viewBox="0 0 88 90">
        <g id="WH_new"
           stroke="none"
           stroke-width="1"
           fill="none"
           fill-rule="evenodd">
            <g id="375-food"
               transform="translate(-143.000000, -2270.000000)"
               fill="currentColor"
               fill-rule="nonzero">
                <g id="Group"
                   transform="translate(30.000000, 2195.000000)">
                    <path d="M196.662655,97.6781208 C201.084664,106.974077 202.177872,118.240733 199.740961,129.403048 C195.238308,150.029294 179.791005,165 163.010576,165 C161.028621,165 159.042944,164.785014 157.108459,164.360493 L138.63803,158.690324 C120.800711,154.777884 109.148889,132.865739 114.174554,109.845421 C119.199933,86.8245235 137.441309,71.7027573 155.278345,75.6160595 L175.570016,79.7919296 C184.630803,81.7792539 192.121681,88.1313476 196.662655,97.6781208 Z M196.880554,128.775578 C201.632843,107.00647 191.811423,86.35901 174.944065,82.6592605 C174.443926,82.5494748 173.942647,82.4603268 173.441658,82.3823598 C172.182881,82.1871527 170.922388,82.0873996 169.667047,82.0873996 C154.563742,82.0873996 140.055797,95.8736792 135.798208,115.376555 C131.519745,134.973456 139.055814,153.654229 152.90663,159.888227 C154.441923,160.579041 156.051279,161.123956 157.734412,161.49316 C159.49075,161.878415 161.255096,162.064737 163.010576,162.064737 C178.11416,162.064737 192.622967,148.278454 196.880554,128.775578 Z M160.912282,111.939161 C159.838703,115.910511 156.464608,118.454862 153.376031,117.622129 C150.287453,116.789396 148.653974,112.894918 149.727552,108.923569 C150.801131,104.95222 154.175226,102.407868 157.263803,103.240601 C160.352381,104.073334 161.985861,107.967812 160.912282,111.939161 Z M174.684045,112.13791 C171.961255,111.320848 170.521076,107.49972 171.467576,103.603398 C172.414075,99.7070808 175.388459,97.2107699 178.111532,98.0278346 C180.83433,98.8449014 182.274501,102.66603 181.328006,106.562347 C180.38151,110.458668 177.406836,112.954977 174.684045,112.13791 Z M161.760532,148.524223 C155.595547,146.762924 151.150561,141.169132 149.298343,133.955195 L188.082873,123.232044 C187.902709,124.878085 187.607622,126.54461 187.181168,128.215976 C183.559867,142.407639 172.178417,151.500119 161.760532,148.524223 Z"
                          id="happy-hour-smile2-copy"></path>
                </g>
            </g>
        </g>
    </symbol>

    <symbol viewBox="0 0 140 176"
            id="roses">
        <g id="R2"
           stroke="none"
           stroke-width="1"
           fill="none"
           fill-rule="evenodd">
            <g id="1440_retail_detail"
               transform="translate(-309.000000, -3029.000000)"
               fill="#000000">
                <g id="Group-9"
                   transform="translate(121.000000, 1821.000000)">
                    <g id="noun_Rose_1472739"
                       transform="translate(265.471600, 1285.195327) rotate(-330.000000) translate(-265.471600, -1285.195327) translate(195.645011, 1205.195327)">
                        <g id="Group">
                            <path d="M56.416185,19.4219653 C50.867052,24.9710983 65.6647399,28.6705202 67.5144509,22.1965318 C68.4393064,18.4971098 59.1907514,17.5722543 56.416185,19.4219653 Z"
                                  id="Path"></path>
                            <path d="M31.4450867,36.0693642 C37.9190751,43.4682081 40.6936416,47.1676301 49.9421965,44.3930636 C35.1445087,35.1445087 36.9942197,22.1965318 46.2427746,16.6473988 C51.7919075,13.8728324 53.6416185,6.47398844 66.5895954,10.1734104 C63.8150289,-0.924855491 51.7919075,0.924855491 41.6184971,7.39884393 C39.7687861,9.24855491 20.3468208,15.7225434 31.4450867,36.0693642 Z"
                                  id="Path"></path>
                            <path d="M73.0635838,30.5202312 C78.6127168,23.1213873 72.1387283,20.3468208 69.3641618,21.2716763 C64.7398844,35.1445087 49.017341,18.4971098 49.9421965,26.8208092 C54.566474,35.1445087 66.5895954,37.9190751 73.0635838,30.5202312 Z"
                                  id="Path"></path>
                            <path d="M52.716763,12.9479769 C49.017341,14.7976879 48.0924855,22.1965318 53.6416185,21.2716763 C51.7919075,12.9479769 75.8381503,19.4219653 76.7630058,23.1213873 C77.6878613,24.0462428 77.6878613,24.9710983 77.6878613,25.8959538 C80.4624277,27.7456647 85.0867052,22.1965318 80.4624277,18.4971098 C73.0635838,10.1734104 57.3410405,8.32369942 52.716763,12.9479769 Z"
                                  id="Path"></path>
                            <path d="M77.6878613,28.6705202 C63.8150289,46.2427746 45.3179191,29.5953757 49.017341,24.0462428 C49.9421965,20.3468208 48.0924855,19.4219653 49.017341,16.6473988 C40.6936416,22.1965318 39.7687861,27.7456647 42.5433526,33.2947977 C46.2427746,44.3930636 61.9653179,44.3930636 70.2890173,41.6184971 C77.6878613,39.7687861 85.0867052,31.4450867 77.6878613,28.6705202 Z"
                                  id="Path"></path>
                            <path d="M49.017341,70.2890173 C50.867052,63.8150289 29.5953757,65.6647399 24.9710983,48.0924855 C12.0231214,62.8901734 43.4682081,78.6127168 49.017341,70.2890173 Z"
                                  id="Path"></path>
                            <path d="M70.2890173,9.24855491 C76.7630058,10.1734104 88.7861272,17.5722543 82.3121387,24.9710983 C87.8612717,38.8439306 68.4393064,50.867052 52.716763,43.4682081 C47.1676301,49.017341 79.5375723,60.1156069 90.6358382,40.6936416 C102.65896,22.1965318 82.3121387,0 69.3641618,8.32369942 C68.4393064,9.24855491 69.3641618,9.24855491 70.2890173,9.24855491 Z"
                                  id="Path"></path>
                            <path d="M24.0462428,43.4682081 C31.4450867,59.1907514 39.7687861,64.7398844 58.265896,63.8150289 C63.8150289,62.8901734 85.0867052,61.9653179 85.0867052,49.017341 C83.2369942,51.7919075 67.5144509,58.265896 50.867052,48.0924855 C36.9942197,49.9421965 28.6705202,38.8439306 27.7456647,30.5202312 C18.4971098,33.2947977 21.2716763,36.9942197 24.0462428,43.4682081 Z"
                                  id="Path"></path>
                            <path d="M68.4393064,6.47398844 C90.6358382,-1.84971098 107.283237,32.3699422 87.8612717,47.1676301 C88.7861272,50.867052 115.606936,44.3930636 108.208092,23.1213873 C98.9595376,-5.54913295 68.4393064,-0.924855491 68.4393064,6.47398844 Z"
                                  id="Path"></path>
                            <path d="M51.7919075,65.6647399 C48.0924855,65.6647399 51.7919075,72.1387283 62.8901734,73.9884393 C83.2369942,78.6127168 104.508671,61.9653179 103.583815,45.3179191 C98.9595376,49.017341 94.3352601,50.867052 88.7861272,50.867052 C86.0115607,59.1907514 77.6878613,62.8901734 70.2890173,64.7398844 C60.1156069,66.5895954 57.3410405,64.7398844 51.7919075,65.6647399 Z"
                                  id="Path"></path>
                            <path d="M25.8959538,129.479769 C25.8959538,130.404624 25.8959538,130.404624 24.9710983,131.32948 C28.6705202,133.179191 38.8439306,130.404624 41.6184971,128.554913 C40.6936416,130.404624 41.6184971,131.32948 40.6936416,132.254335 C45.3179191,132.254335 53.6416185,126.705202 54.566474,125.780347 C55.4913295,126.705202 55.4913295,126.705202 55.4913295,127.630058 C57.3410405,126.705202 58.265896,125.780347 61.0404624,122.080925 C64.7398844,116.531792 67.5144509,106.358382 66.5895954,105.433526 C65.6647399,104.508671 64.7398844,105.433526 63.8150289,106.358382 C62.8901734,110.982659 61.0404624,116.531792 57.3410405,121.156069 C58.265896,118.381503 62.8901734,110.982659 61.9653179,106.358382 C60.1156069,106.358382 58.265896,108.208092 54.566474,109.132948 C51.7919075,115.606936 51.7919075,120.231214 45.3179191,125.780347 C49.017341,120.231214 51.7919075,117.456647 52.716763,110.057803 C48.0924855,110.057803 38.8439306,113.757225 36.9942197,118.381503 C36.9942197,118.381503 36.9942197,118.381503 36.0693642,118.381503 C34.2196532,120.231214 31.4450867,122.080925 29.5953757,124.855491 C34.2196532,119.306358 36.9942197,116.531792 36.9942197,114.682081 C36.0693642,113.757225 31.4450867,113.757225 24.0462428,114.682081 C22.1965318,117.456647 19.4219653,119.306358 16.6473988,121.156069 C18.4971098,119.306358 21.2716763,116.531792 21.2716763,114.682081 C17.5722543,115.606936 8.32369942,111.907514 5.54913295,112.83237 C8.32369942,110.982659 18.4971098,115.606936 21.2716763,112.83237 C18.4971098,111.907514 15.7225434,109.132948 12.0231214,107.283237 C15.7225434,109.132948 19.4219653,110.982659 22.1965318,112.83237 C24.0462428,113.757225 26.8208092,112.83237 29.5953757,112.83237 C26.8208092,108.208092 24.0462428,105.433526 21.2716763,104.508671 C30.5202312,106.358382 24.9710983,114.682081 38.8439306,111.907514 C40.6936416,111.907514 42.5433526,110.982659 43.4682081,110.057803 C42.5433526,105.433526 36.9942197,100.809249 31.4450867,98.9595376 C36.0693642,98.0346821 43.4682081,107.283237 46.2427746,110.057803 C50.867052,109.132948 55.4913295,108.208092 56.416185,106.358382 C52.716763,102.65896 46.2427746,99.8843931 41.6184971,98.0346821 C47.1676301,99.8843931 52.716763,101.734104 58.265896,105.433526 C60.1156069,103.583815 62.8901734,103.583815 64.7398844,102.65896 C61.9653179,97.1098266 53.6416185,94.3352601 49.017341,92.4855491 C49.017341,94.3352601 49.017341,94.3352601 49.017341,96.1849711 C45.3179191,92.4855491 36.9942197,91.5606936 32.3699422,91.5606936 C32.3699422,92.4855491 33.2947977,93.4104046 33.2947977,94.3352601 C29.5953757,93.4104046 26.8208092,94.3352601 23.1213873,95.2601156 C24.0462428,95.2601156 24.0462428,96.1849711 24.0462428,97.1098266 C21.2716763,96.1849711 18.4971098,98.0346821 13.8728324,99.8843931 C14.7976879,101.734104 14.7976879,101.734104 15.7225434,103.583815 C12.9479769,102.65896 7.39884393,103.583815 5.54913295,105.433526 C6.47398844,106.358382 5.54913295,107.283237 6.47398844,108.208092 C3.69942197,108.208092 2.77456647,109.132948 0,112.83237 C2.77456647,115.606936 5.54913295,117.456647 7.39884393,117.456647 C7.39884393,117.456647 5.54913295,118.381503 5.54913295,119.306358 C10.1734104,124.855491 14.7976879,121.156069 12.0231214,125.780347 C16.6473988,128.554913 17.5722543,129.479769 25.8959538,129.479769 Z"
                                  id="Path"></path>
                            <path d="M69.3641618,79.5375723 C70.2890173,113.757225 100.809249,146.127168 127.630058,160 C98.9595376,155.375723 64.7398844,112.83237 63.8150289,80.4624277 L69.3641618,79.5375723 Z"
                                  id="Path"></path>
                            <path d="M136.878613,91.5606936 C137.803468,91.5606936 138.728324,92.4855491 139.653179,91.5606936 C139.653179,96.1849711 134.104046,106.358382 130.404624,109.132948 C133.179191,108.208092 133.179191,110.057803 135.028902,109.132948 C134.104046,113.757225 124.855491,121.156069 123.00578,122.080925 C123.930636,123.00578 123.00578,123.930636 124.855491,123.930636 C123.00578,124.855491 122.080925,125.780347 117.456647,127.630058 C110.057803,130.404624 97.1098266,129.479769 96.1849711,127.630058 C96.1849711,126.705202 97.1098266,125.780347 98.0346821,124.855491 C104.508671,125.780347 110.057803,124.855491 117.456647,123.00578 C113.757225,123.00578 104.508671,125.780347 99.8843931,123.00578 C99.8843931,121.156069 102.65896,119.306358 104.508671,116.531792 C112.83237,115.606936 118.381503,116.531792 126.705202,111.907514 C119.306358,113.757225 114.682081,115.606936 106.358382,114.682081 C109.132948,109.132948 114.682081,99.8843931 121.156069,99.8843931 C121.156069,99.8843931 121.156069,99.8843931 121.156069,99.8843931 C124.855491,98.0346821 127.630058,96.1849711 130.404624,94.3352601 C123.00578,97.1098266 118.381503,99.8843931 117.456647,98.0346821 C116.531792,97.1098266 118.381503,92.4855491 122.080925,84.1618497 C125.780347,83.2369942 127.630058,81.3872832 131.32948,78.6127168 C129.479769,80.4624277 124.855491,82.3121387 123.00578,82.3121387 C124.855491,77.6878613 124.855491,66.5895954 125.780347,63.8150289 C123.00578,65.6647399 124.855491,78.6127168 121.156069,80.4624277 C120.231214,77.6878613 119.306358,73.9884393 118.381503,68.4393064 C118.381503,73.0635838 119.306358,77.6878613 120.231214,82.3121387 C120.231214,84.1618497 118.381503,86.9364162 118.381503,89.7109827 C113.757225,86.0115607 111.907514,82.3121387 111.907514,77.6878613 C110.057803,88.7861272 121.156069,86.0115607 112.83237,99.8843931 C111.907514,101.734104 110.982659,103.583815 110.057803,104.508671 C105.433526,100.809249 101.734104,93.4104046 101.734104,87.8612717 C98.9595376,92.4855491 106.358382,103.583815 108.208092,107.283237 C106.358382,111.907514 103.583815,116.531792 100.809249,116.531792 C98.9595376,111.907514 98.0346821,103.583815 97.1098266,98.0346821 C97.1098266,105.433526 97.1098266,111.907514 98.9595376,118.381503 C97.1098266,120.231214 96.1849711,123.00578 94.3352601,124.855491 C88.7861272,119.306358 88.7861272,109.132948 88.7861272,103.583815 C90.6358382,105.433526 90.6358382,104.508671 92.4855491,105.433526 C89.7109827,99.8843931 91.5606936,90.6358382 93.4104046,85.0867052 C94.3352601,86.0115607 94.3352601,87.8612717 96.1849711,87.8612717 C96.1849711,83.2369942 98.9595376,80.4624277 99.8843931,76.7630058 C100.809249,77.6878613 101.734104,78.6127168 102.65896,78.6127168 C102.65896,74.9132948 105.433526,72.1387283 109.132948,68.4393064 C110.057803,70.2890173 110.982659,69.3641618 111.907514,71.2138728 C112.83237,67.5144509 115.606936,62.8901734 118.381503,61.0404624 C119.306358,61.9653179 120.231214,61.9653179 121.156069,62.8901734 C122.080925,60.1156069 123.00578,59.1907514 127.630058,57.3410405 C130.404624,61.9653179 131.32948,65.6647399 130.404624,66.5895954 C131.32948,67.5144509 132.254335,65.6647399 133.179191,65.6647399 C136.878613,73.0635838 132.254335,76.7630058 137.803468,75.8381503 C139.653179,81.3872832 140.578035,82.3121387 136.878613,91.5606936 Z"
                                  id="Path"></path>
                        </g>
                    </g>
                </g>
            </g>
        </g>
    </symbol>

    <symbol id="radiohead"
            viewBox="0 0 117 140">
        <g id="R2"
           stroke="none"
           stroke-width="1"
           fill="none"
           fill-rule="evenodd">
            <g id="1440_community"
               transform="translate(-386.000000, -3535.000000)"
               fill="currentColor"
               fill-rule="nonzero">
                <g id="Group-15"
                   transform="translate(239.000000, 3173.000000)">
                    <g id="Group-14"
                       transform="translate(0.000000, 180.000000)">
                        <g id="Group-13"
                           transform="translate(2.000000, 0.000000)">
                            <g id="noun_Audio_1883584-Copy"
                               transform="translate(203.500000, 252.000000) scale(-1, 1) translate(-203.500000, -252.000000) translate(145.000000, 182.000000)">
                                <path d="M7.0668,90.8783333 L8.45742857,91.37 L7.74707143,92.6583333 C7.22224286,93.6133333 8.25852857,94.955 9.56224286,96.4816667 C10.2726,97.3133333 10.8860143,98.0316667 11.1317143,98.7666667 C11.6849571,100.42 9.98845714,101.163333 9.1728,101.52 C8.75327143,101.703333 7.97104286,102.045 7.90752857,102.29 C7.90251429,102.305 7.81727143,102.673333 8.56941429,103.675 C9.2313,104.553333 9.7695,105.1 10.2040714,105.541667 C12.2365286,107.606667 12.2064429,108.275 11.1852,116.418333 C11.0682,117.355 11.3105571,118.125 11.9490429,118.846667 C14.3274857,121.531667 21.7051714,123.011667 32.7232286,123.011667 C38.0350286,123.011667 42.2520429,122.655 42.2938286,122.651667 L43.1429143,122.578333 L51.6354429,139.51 C52.5915,139.538333 54.4267286,139.58 56.8436143,139.58 C82.1206286,139.58 99.7040571,135.645 103.874271,129.055 C105.2766,126.838333 105.256543,124.295 103.815771,121.278333 C97.4175429,107.896667 102.617357,98.085 108.123043,87.6966667 C112.303286,79.81 116.6256,71.6533333 116.6256,61.0033333 C116.6256,42.785 110.884243,0.413333333 57.7094143,0.413333333 C40.1209714,0.413333333 27.0554143,4.92 18.8771143,13.81 C9.13937143,24.395 8.17662857,39.1033333 9.08254286,49.58 C10.4581286,65.5016667 4.61314286,78.5966667 0.942685714,83.825 C0.227314286,84.845 0.3393,85.5683333 0.486385714,86.0216667 C1.23017143,88.3533333 5.59761429,90.36 7.0668,90.8783333 Z M80.3405571,54.6 L78.5671714,52.8316667 C81.8782714,49.53 81.8782714,44.1566667 78.5671714,40.8533333 C76.9609286,39.2516667 74.8281857,38.37 72.5567143,38.37 C72.5550429,38.37 72.5550429,38.37 72.5550429,38.37 C70.2869143,38.37 68.1525,39.25 66.5496,40.85 C63.2368286,44.1533333 63.2368286,49.53 66.5496,52.835 L64.7762143,54.6033333 C60.4856571,50.3233333 60.4856571,43.36 64.7762143,39.0816667 C66.8521286,37.01 69.615,35.8683333 72.5533714,35.8683333 L72.5550429,35.8683333 C75.4950857,35.87 78.2579571,37.0116667 80.3372143,39.085 C82.4148,41.1566667 83.5597286,43.9116667 83.5597286,46.8416667 C83.5597286,49.7716667 82.4198143,52.5283333 80.3405571,54.6 Z M86.2590857,60.5033333 C93.8122714,52.97 93.8122714,40.7166667 86.2590857,33.185 C78.7025571,25.65 66.4092,25.65 58.8576857,33.18 C55.1972571,36.83 53.1815143,41.6833333 53.1815143,46.8416667 C53.1831857,52.0016667 55.2006,56.8533333 58.8610286,60.5033333 L57.0876429,62.2716667 C52.9525286,58.1483333 50.6743714,52.6683333 50.6727,46.8416667 C50.6727,41.0133333 52.9491857,35.535 57.0843,31.4116667 C61.2160714,27.2916667 66.7100571,25.0233333 72.5533714,25.0233333 L72.5550429,25.0233333 C78.4000286,25.0233333 83.8956857,27.2933333 88.0308,31.4166667 C96.5617714,39.9233333 96.5617714,53.7616667 88.0308,62.27 L86.2590857,60.5033333 Z M49.3974,23.745 C62.1687857,11.0066667 82.9479857,11.0116667 95.7227143,23.75 C108.4941,36.4866667 108.4941,57.2066667 95.7243857,69.94 L93.951,68.1716667 C105.742929,56.4116667 105.742929,37.2783333 93.9493286,25.5166667 C82.1540571,13.7583333 62.9643857,13.7516667 51.1691143,25.5116667 C45.4545,31.21 42.3072,38.785 42.3072,46.8416667 C42.3088714,54.8983333 45.4561714,62.4733333 51.1707857,68.1716667 L49.3974,69.94 C36.6260143,57.2033333 36.6243429,36.4816667 49.3974,23.745 Z"
                                      id="Shape"></path>
                            </g>
                        </g>
                    </g>
                </g>
            </g>
        </g>
    </symbol>

    <symbol id="clover"
            viewBox="0 0 10 10">
        <g id="WH_newer"
           stroke="none"
           stroke-width="1"
           fill="none"
           fill-rule="evenodd">
            <g id="1440_become-vendor"
               transform="translate(-781.000000, -897.000000)"
               fill="currentColor">
                <path d="M785.34375,901.539062 L784.054688,899.585938 C783.763019,899.148435 783.617188,898.695315 783.617188,898.226562 C783.617188,897.773435 783.791665,897.41146 784.140625,897.140625 C784.286459,897.046875 784.434895,897 784.585938,897 C784.934898,897 785.195312,897.114582 785.367188,897.34375 C785.539063,897.572918 785.712239,897.572918 785.886719,897.34375 C786.061199,897.114582 786.26302,897 786.492188,897 C786.861981,897 787.156249,897.239581 787.375,897.71875 C787.427084,897.895834 787.453125,898.065103 787.453125,898.226562 C787.453125,898.763024 787.273439,899.276039 786.914062,899.765625 L785.726562,901.523438 L787.664062,900.882812 C788.205732,900.66927 788.718748,900.645833 789.203125,900.8125 C789.343751,900.864584 789.48177,900.947916 789.617188,901.0625 C789.898439,901.338543 790.039062,901.617186 790.039062,901.898438 C790.039062,901.98698 790.023438,902.07552 789.992188,902.164062 C789.924479,902.403647 789.759116,902.574218 789.496094,902.675781 C789.233072,902.777344 789.178385,902.951822 789.332031,903.199219 C789.485678,903.446616 789.505209,903.749998 789.390625,904.109375 C789.348958,904.265626 789.263021,904.401041 789.132812,904.515625 C788.903645,904.687501 788.664064,904.773438 788.414062,904.773438 C788.283854,904.773438 788.148438,904.747396 788.007812,904.695312 C787.585935,904.554687 787.22396,904.268231 786.921875,903.835938 L785.695312,902.070312 C785.856772,903.747404 785.651045,905.213535 785.078125,906.46875 L784.515625,906.46875 C785.223962,905.213535 785.500001,903.747404 785.34375,902.070312 L784.117188,903.835938 C783.809894,904.268231 783.447919,904.554687 783.03125,904.695312 C782.890624,904.747396 782.755209,904.773438 782.625,904.773438 C782.374999,904.773438 782.138022,904.687501 781.914062,904.515625 C781.778645,904.401041 781.6875,904.265626 781.640625,904.109375 C781.531249,903.749998 781.553385,903.446616 781.707031,903.199219 C781.860678,902.951822 781.805991,902.777344 781.542969,902.675781 C781.279947,902.574218 781.114584,902.403647 781.046875,902.164062 C781.015625,902.07552 781,901.989584 781,901.90625 C781,901.61979 781.140624,901.338543 781.421875,901.0625 C781.557292,900.947916 781.695312,900.864584 781.835938,900.8125 C782.315107,900.645833 782.828122,900.66927 783.375,900.882812 L785.34375,901.539062 Z"
                      id="☘︎"></path>
            </g>
        </g>
    </symbol>

    <symbol id="horse"
            viewBox="0 0 13 14">
        <g id="WH_newer"
           stroke="none"
           stroke-width="1"
           fill="none"
           fill-rule="evenodd">
            <g id="1440_become-vendor"
               transform="translate(-778.000000, -979.000000)"
               fill="currentColor">
                <path d="M790.375,992.24591 L781.433484,992.24591 C781.433484,991.344767 781.546728,990.653258 781.773218,990.171363 C781.999709,989.689468 782.399676,989.282273 782.973131,988.949765 C783.700792,988.530517 784.064617,988.00044 784.064617,987.35952 C784.064617,987.214951 784.016429,987.067976 783.92005,986.918588 C783.664645,987.125803 782.982774,987.361928 781.874416,987.62697 C781.4889,987.737806 781.252775,988.10886 781.166034,988.740142 C781.117844,989.038917 781.020262,989.271428 780.873284,989.437681 C780.726306,989.603935 780.551622,989.687061 780.349226,989.687061 C780.156468,989.687061 779.990217,989.667785 779.850467,989.629234 C779.850467,989.373829 779.875766,989.176255 779.926365,989.036506 C779.976964,988.896756 780.064909,988.75219 780.190202,988.602803 C780.325132,988.419682 780.392596,988.25825 780.392596,988.118501 C780.392596,987.940199 780.310675,987.85105 780.146831,987.85105 C780.01672,987.85105 779.838421,988.070309 779.61193,988.508834 C779.351707,989.019642 779.187865,989.279861 779.1204,989.289499 C778.373463,988.850975 778,988.301623 778,987.641427 C778,987.236635 778.279495,986.660779 778.838493,985.913842 C779.243285,985.369301 779.501095,984.98861 779.61193,984.771757 C779.722766,984.554904 779.797459,984.287457 779.836011,983.969406 C779.874562,983.622442 779.916727,983.377884 779.962507,983.235725 C780.008287,983.093566 780.113098,982.899606 780.276942,982.653839 C780.493795,982.335789 780.629928,982.063522 780.685346,981.837032 C780.740764,981.610541 780.768473,981.302133 780.768473,980.911798 L780.768473,980.008249 C781.221454,980.205826 781.659972,980.668439 782.084039,981.3961 L782.467144,981.381643 C782.650264,981.058773 782.787602,980.550382 782.879162,979.856453 C783.216488,980.01066 783.524896,980.303406 783.804395,980.734702 C784.083895,981.165998 784.279059,981.465973 784.389895,981.634637 C786.462043,981.899679 787.97758,982.664676 788.936551,983.92965 C789.895522,985.194624 790.375,987.345048 790.375,990.380986 L790.375,992.24591 Z M782.39486,981.858717 C782.21174,981.858717 782.01778,981.911724 781.812975,982.017741 C781.608169,982.123758 781.491311,982.273143 781.462398,982.465901 C781.597328,982.465901 781.759965,982.435783 781.950314,982.375546 C782.140662,982.31531 782.256316,982.239412 782.297277,982.147852 C782.338238,982.056292 782.370765,981.959915 782.39486,981.858717 Z M789.630476,991.833892 L789.630476,990.67735 C789.630476,988.219686 789.382304,986.413812 788.885952,985.259673 C788.3896,984.105535 787.70291,983.295963 786.825862,982.830935 C785.948813,982.365906 785.240438,982.133395 784.700716,982.133395 C784.503139,982.133395 784.404352,982.208088 784.404352,982.357475 C784.404352,982.405665 784.426037,982.455058 784.469407,982.505657 C784.512778,982.556256 784.556148,982.586374 784.599518,982.596012 C785.924729,982.92852 786.915008,983.63569 787.570386,984.717544 C788.225763,985.799398 788.553446,987.441431 788.553446,989.64369 C788.553446,990.24124 788.483573,990.9713 788.343823,991.833892 L789.630476,991.833892 Z M782.199693,983.868209 L782.141866,983.738098 L781.816589,983.738098 C781.652745,983.738098 781.444328,983.823633 781.191333,983.994705 C780.938338,984.165778 780.811843,984.335643 780.811843,984.504307 C780.811843,984.62478 780.925086,984.774166 781.151577,984.952467 L781.151577,984.641646 L781.209404,984.547677 L781.520225,984.591047 C781.688888,984.504306 781.773218,984.427204 781.773218,984.359739 L781.744305,984.077832 C781.864779,983.981453 782.016573,983.911579 782.199693,983.868209 Z M779.243283,987.171582 C779.093895,987.171582 778.969809,987.220975 778.871021,987.319764 C778.772232,987.418552 778.722839,987.540229 778.722839,987.684797 C778.722839,987.916107 778.797531,988.03176 778.946919,988.03176 C779.019203,988.03176 779.084258,988.005256 779.142085,987.952248 C779.199913,987.899239 779.228826,987.831775 779.228826,987.749853 L779.019203,987.496859 C779.130039,987.410118 779.204731,987.301693 779.243283,987.171582 Z"
                      id="♞"></path>
            </g>
        </g>
    </symbol>

    <symbol id="smile"
            viewBox="0 0 12 12">
        <g id="WH_newer"
           stroke="none"
           stroke-width="1"
           fill="none"
           fill-rule="evenodd">
            <g id="1440_become-vendor"
               transform="translate(-779.000000, -937.000000)"
               fill="currentColor">
                <path d="M787.292683,942.95122 C787.292683,943.63415 787.046073,944.15447 786.552846,944.512195 C786.059618,944.86992 785.449868,945.04878 784.723577,945.04878 C784.21409,945.04878 783.73713,944.93496 783.292683,944.707317 C782.609753,944.371272 782.268293,943.818432 782.268293,943.04878 L781.357724,943.162602 C781.357724,944.062335 781.682924,944.791325 782.333333,945.349593 C782.983743,945.907862 783.796743,946.186992 784.772358,946.186992 C785.802173,946.186992 786.631433,945.875342 787.260163,945.252033 C787.888892,944.628723 788.203252,943.883473 788.203252,943.01626 L787.292683,942.95122 Z M788.95122,939.03252 C790.089437,940.170737 790.658537,941.547417 790.658537,943.162602 C790.658537,944.777786 790.089437,946.154466 788.95122,947.292683 C787.802162,948.4309 786.420062,949 784.804878,949 C783.200534,949 781.829274,948.4309 780.691057,947.292683 C779.56368,946.154466 779,944.777786 779,943.162602 C779,941.547417 779.56368,940.170737 780.691057,939.03252 C781.829274,937.894303 783.200534,937.325203 784.804878,937.325203 C786.420062,937.325203 787.802162,937.894303 788.95122,939.03252 Z M786.414634,942.235772 C786.685638,942.235772 786.910568,942.146342 787.089431,941.96748 C787.268294,941.788617 787.357724,941.563687 787.357724,941.292683 C787.357724,941.010839 787.268294,940.780489 787.089431,940.601626 C786.910568,940.422763 786.685638,940.333333 786.414634,940.333333 C786.14363,940.333333 785.9187,940.422763 785.739837,940.601626 C785.560975,940.780489 785.471545,941.010839 785.471545,941.292683 C785.471545,941.563687 785.560975,941.788617 785.739837,941.96748 C785.9187,942.146342 786.14363,942.235772 786.414634,942.235772 Z M783.243902,942.235772 C783.514907,942.235772 783.739837,942.146342 783.918699,941.96748 C784.097562,941.788617 784.186992,941.563687 784.186992,941.292683 C784.186992,941.010839 784.097562,940.780489 783.918699,940.601626 C783.739837,940.422763 783.514907,940.333333 783.243902,940.333333 C782.972898,940.333333 782.747968,940.422763 782.569106,940.601626 C782.390243,940.780489 782.300813,941.010839 782.300813,941.292683 C782.300813,941.563687 782.390243,941.788617 782.569106,941.96748 C782.747968,942.146342 782.972898,942.235772 783.243902,942.235772 Z"
                      id="☻"></path>
            </g>
        </g>
    </symbol>

    <symbol id="yinyang"
            viewBox="0 0 12 12">
        <title>☯︎</title>
        <desc>Created with Sketch.</desc>
        <g id="WH_newer"
           stroke="none"
           stroke-width="1"
           fill="none"
           fill-rule="evenodd">
            <g id="1440_become-vendor"
               transform="translate(-239.000000, -1419.000000)"
               fill="currentColor">
                <path d="M250.264,1424.872 C250.264,1421.896 247.816,1419.464 244.856,1419.464 C242.392,1419.464 240.312,1421.208 239.656,1423.512 C239.288,1424.872 240.104,1426.648 241.928,1426.648 C243.224,1426.648 243.656,1426.168 244.856,1424.84 C245.608,1424.008 246.552,1423.032 247.848,1423.032 C249.688,1423.032 250.408,1424.824 250.104,1426.168 C250.232,1425.736 250.264,1425.336 250.264,1424.872 Z M250.728,1424.872 C250.728,1428.104 248.088,1430.744 244.856,1430.744 C241.64,1430.744 239,1428.104 239,1424.872 C239,1421.64 241.64,1419 244.856,1419 C248.088,1419 250.728,1421.64 250.728,1424.872 Z"
                      id="☯︎"></path>
            </g>
        </g>
    </symbol>

    <symbol id="wheel"
            viewBox="0 0 12 12">
        <g id="WH_newer"
           stroke="none"
           stroke-width="1"
           fill="none"
           fill-rule="evenodd">
            <g id="1440_become-vendor"
               transform="translate(-239.000000, -1482.000000)"
               fill="currentColor">
                <path d="M249.930233,1487.54419 C250.184497,1487.44496 250.345736,1487.39535 250.413953,1487.39535 C250.575195,1487.39535 250.713178,1487.45271 250.827907,1487.56744 C250.942636,1487.68217 251,1487.82015 251,1487.9814 C251,1488.13643 250.941086,1488.27132 250.823256,1488.38605 C250.705426,1488.50078 250.568993,1488.55814 250.413953,1488.55814 C250.345736,1488.55814 250.184497,1488.50543 249.930233,1488.4 C249.787596,1489.47287 249.403104,1490.4 248.776744,1491.1814 C249.198452,1491.27442 249.409302,1491.48217 249.409302,1491.80465 C249.409302,1491.97209 249.35814,1492.11163 249.255814,1492.22326 C249.153488,1492.33488 249.015505,1492.3907 248.84186,1492.3907 C248.500773,1492.3907 248.305427,1492.17365 248.255814,1491.73953 C247.4186,1492.40931 246.454269,1492.8031 245.362791,1492.92093 C245.486822,1493.15659 245.548837,1493.32093 245.548837,1493.41395 C245.548837,1493.57519 245.493024,1493.71008 245.381395,1493.8186 C245.269767,1493.92713 245.136435,1493.9814 244.981395,1493.9814 C244.820154,1493.9814 244.685272,1493.92713 244.576744,1493.8186 C244.468217,1493.71008 244.413953,1493.57519 244.413953,1493.41395 C244.413953,1493.30233 244.48217,1493.13178 244.618605,1492.90233 C243.533328,1492.7845 242.575198,1492.3845 241.744186,1491.70233 C241.700775,1492.16124 241.505428,1492.3907 241.15814,1492.3907 C240.984495,1492.3907 240.846512,1492.33488 240.744186,1492.22326 C240.64186,1492.11163 240.590698,1491.97209 240.590698,1491.80465 C240.590698,1491.46977 240.810851,1491.26202 241.251163,1491.1814 C240.599997,1490.4 240.212404,1489.47287 240.088372,1488.4 C239.815503,1488.50543 239.648062,1488.55814 239.586047,1488.55814 C239.431007,1488.55814 239.294574,1488.50078 239.176744,1488.38605 C239.058914,1488.27132 239,1488.13643 239,1487.9814 C239,1487.82015 239.057364,1487.68217 239.172093,1487.56744 C239.286822,1487.45271 239.424805,1487.39535 239.586047,1487.39535 C239.648062,1487.39535 239.815503,1487.44496 240.088372,1487.54419 C240.206202,1486.48372 240.593795,1485.55039 241.251163,1484.74419 C240.817052,1484.68837 240.6,1484.49923 240.6,1484.17674 C240.6,1484.0093 240.657364,1483.86822 240.772093,1483.75349 C240.886822,1483.63876 241.024805,1483.5814 241.186047,1483.5814 C241.533335,1483.5814 241.731783,1483.79845 241.781395,1484.23256 C242.581399,1483.58139 243.50232,1483.1876 244.544186,1483.05116 C244.457364,1482.85891 244.413953,1482.70078 244.413953,1482.57674 C244.413953,1482.4217 244.468217,1482.28682 244.576744,1482.17209 C244.685272,1482.05736 244.820154,1482 244.981395,1482 C245.130233,1482 245.262015,1482.05736 245.376744,1482.17209 C245.491473,1482.28682 245.548837,1482.4217 245.548837,1482.57674 C245.548837,1482.69457 245.486822,1482.85891 245.362791,1483.06977 C246.392253,1483.14419 247.319376,1483.51317 248.144186,1484.17674 C248.342637,1483.77984 248.56589,1483.5814 248.813953,1483.5814 C248.968993,1483.5814 249.103875,1483.63566 249.218605,1483.74419 C249.333334,1483.85271 249.390698,1483.9907 249.390698,1484.15814 C249.390698,1484.48682 249.176746,1484.68217 248.748837,1484.74419 C249.393802,1485.53799 249.787596,1486.47131 249.930233,1487.54419 Z M247.511628,1484.97674 C246.841857,1484.48682 246.131787,1484.18915 245.381395,1484.08372 C245.493024,1484.35039 245.548837,1484.58915 245.548837,1484.8 C245.548837,1484.89302 245.530233,1485.01395 245.493023,1485.16279 C245.455814,1485.31783 245.437209,1485.44496 245.437209,1485.54419 C245.437209,1485.63721 245.452713,1485.75814 245.483721,1485.90698 C245.527132,1486.14264 245.548837,1486.37829 245.548837,1486.61395 C245.71628,1486.44651 245.902325,1486.29457 246.106977,1486.15814 C246.336435,1486.0155 246.510077,1485.83256 246.627907,1485.6093 C246.714729,1485.43566 246.815503,1485.30388 246.930233,1485.21395 C247.044962,1485.12403 247.238758,1485.04496 247.511628,1484.97674 Z M244.581395,1484.08372 C243.849609,1484.18295 243.158143,1484.48062 242.506977,1484.97674 C242.767443,1485.04496 242.955038,1485.12403 243.069767,1485.21395 C243.184497,1485.30388 243.285271,1485.43566 243.372093,1485.6093 C243.508528,1485.86357 243.710076,1486.06201 243.976744,1486.20465 C244.150388,1486.29767 244.296123,1486.3845 244.413953,1486.46512 C244.413953,1486.29767 244.438759,1486.11473 244.488372,1485.91628 C244.525582,1485.76744 244.544186,1485.64341 244.544186,1485.54419 C244.544186,1485.44496 244.522481,1485.31783 244.47907,1485.16279 C244.435659,1485.01395 244.413953,1484.89302 244.413953,1484.8 C244.413953,1484.58915 244.469767,1484.35039 244.581395,1484.08372 Z M248.906977,1487.54419 C248.795348,1486.8248 248.516281,1486.14574 248.069767,1485.50698 C247.877518,1485.88527 247.638761,1486.16124 247.353488,1486.33488 C247.136433,1486.46512 246.959691,1486.63876 246.823256,1486.85581 C246.693023,1487.05426 246.550388,1487.23411 246.395349,1487.39535 C246.618606,1487.39535 246.851162,1487.42636 247.093023,1487.48837 C247.23566,1487.52558 247.350387,1487.54419 247.437209,1487.54419 C247.548838,1487.54419 247.679069,1487.51938 247.827907,1487.46977 C247.976745,1487.42015 248.100775,1487.39535 248.2,1487.39535 C248.336435,1487.39535 248.572091,1487.44496 248.906977,1487.54419 Z M243.604651,1487.39535 C243.449612,1487.23411 243.306977,1487.05426 243.176744,1486.85581 C243.040309,1486.63876 242.863567,1486.46512 242.646512,1486.33488 C242.379844,1486.17364 242.134885,1485.90388 241.911628,1485.52558 C241.471316,1486.16434 241.204652,1486.83721 241.111628,1487.54419 C241.427909,1487.44496 241.657364,1487.39535 241.8,1487.39535 C241.899225,1487.39535 242.023255,1487.42015 242.172093,1487.46977 C242.320931,1487.51938 242.451162,1487.54419 242.562791,1487.54419 C242.649613,1487.54419 242.76434,1487.52558 242.906977,1487.48837 C243.148838,1487.42636 243.381394,1487.39535 243.604651,1487.39535 Z M245,1488.90233 C245.248063,1488.90233 245.462015,1488.81085 245.64186,1488.62791 C245.821706,1488.44496 245.911628,1488.22946 245.911628,1487.9814 C245.911628,1487.73333 245.821706,1487.51938 245.64186,1487.33953 C245.462015,1487.15969 245.248063,1487.06977 245,1487.06977 C244.751937,1487.06977 244.537985,1487.15969 244.35814,1487.33953 C244.178294,1487.51938 244.088372,1487.73333 244.088372,1487.9814 C244.088372,1488.22946 244.178294,1488.44496 244.35814,1488.62791 C244.537985,1488.81085 244.751937,1488.90233 245,1488.90233 Z M248.925581,1488.3814 C248.640309,1488.49923 248.398451,1488.55814 248.2,1488.55814 C248.100775,1488.55814 247.976745,1488.53954 247.827907,1488.50233 C247.679069,1488.45891 247.548838,1488.43721 247.437209,1488.43721 C247.350387,1488.43721 247.23566,1488.45271 247.093023,1488.48372 C246.851162,1488.53333 246.618606,1488.55814 246.395349,1488.55814 C246.562792,1488.72558 246.711627,1488.91163 246.84186,1489.11628 C246.984497,1489.33954 247.167441,1489.51008 247.390698,1489.62791 C247.644963,1489.77054 247.877518,1490.02791 248.088372,1490.4 C248.516281,1489.77984 248.795348,1489.10698 248.925581,1488.3814 Z M243.604651,1488.55814 C243.381394,1488.55814 243.148838,1488.53333 242.906977,1488.48372 C242.76434,1488.45271 242.649613,1488.43721 242.562791,1488.43721 C242.451162,1488.43721 242.320931,1488.45891 242.172093,1488.50233 C242.023255,1488.53954 241.899225,1488.55814 241.8,1488.55814 C241.601549,1488.55814 241.365893,1488.49923 241.093023,1488.3814 C241.204652,1489.10698 241.483719,1489.77984 241.930233,1490.4 C242.11628,1490.03411 242.342634,1489.77674 242.609302,1489.62791 C242.832559,1489.51008 243.015503,1489.33954 243.15814,1489.11628 C243.288373,1488.91163 243.437208,1488.72558 243.604651,1488.55814 Z M244.544186,1491.86977 C244.457364,1491.6031 244.413953,1491.37985 244.413953,1491.2 C244.413953,1491.10077 244.435659,1490.97985 244.47907,1490.83721 C244.522481,1490.68217 244.544186,1490.55194 244.544186,1490.44651 C244.544186,1490.34729 244.525582,1490.22326 244.488372,1490.07442 C244.438759,1489.86356 244.413953,1489.66202 244.413953,1489.46977 C244.277519,1489.56899 244.11628,1489.66822 243.930233,1489.76744 C243.675968,1489.91008 243.47752,1490.10543 243.334884,1490.35349 C243.161239,1490.64496 242.903878,1490.87752 242.562791,1491.05116 C243.170546,1491.47287 243.831004,1491.74574 244.544186,1491.86977 Z M247.455814,1491.05116 C247.102324,1490.88372 246.838761,1490.65116 246.665116,1490.35349 C246.516278,1490.09302 246.324032,1489.90698 246.088372,1489.79535 C245.958139,1489.73953 245.862016,1489.68062 245.8,1489.6186 L245.8,1489.6 L245.548837,1489.66512 L245.548837,1489.70233 C245.548837,1489.79535 245.533333,1489.91008 245.502326,1490.04651 C245.458915,1490.20155 245.437209,1490.33488 245.437209,1490.44651 C245.437209,1490.55194 245.455814,1490.68217 245.493023,1490.83721 C245.530233,1490.97985 245.548837,1491.10077 245.548837,1491.2 C245.548837,1491.37364 245.499225,1491.5907 245.4,1491.85116 C246.113182,1491.75814 246.798446,1491.49148 247.455814,1491.05116 Z"
                      id="☸︎"></path>
            </g>
        </g>
    </symbol>

    <symbol id="umbrella"
            viewBox="0 0 12 14">
        <g id="WH_newer"
           stroke="none"
           stroke-width="1"
           fill="none"
           fill-rule="evenodd">
            <g id="1440_become-vendor"
               transform="translate(-239.000000, -1356.000000)"
               fill="currentColor">
                <path d="M241.634894,1358.66553 L241.655319,1358.66553 C241.51234,1359.65277 241.222981,1360.14638 240.787234,1360.14638 L240.746383,1360.14638 C240.467233,1360.09872 240.32766,1359.98979 240.32766,1359.81957 L240.32766,1359.80936 C240.32766,1359.54383 240.7634,1359.16256 241.634894,1358.66553 Z M244.606809,1356.86809 L244.617021,1356.86809 C244.48085,1357.84852 244.191492,1358.33872 243.748936,1358.33872 L243.708085,1358.33872 C243.435743,1358.30468 243.299574,1358.20255 243.299574,1358.03234 L243.299574,1358.01191 C243.299574,1357.75319 243.735315,1357.37192 244.606809,1356.86809 Z M247.170213,1356 L247.190638,1356 C247.047659,1356.98724 246.7583,1357.48085 246.322553,1357.48085 L246.271489,1357.48085 C245.999148,1357.44 245.862979,1357.33447 245.862979,1357.16426 L245.862979,1357.14383 C245.862979,1356.88511 246.298719,1356.50383 247.170213,1356 Z M247.629787,1358.0834 L247.650213,1358.0834 C247.507233,1359.06383 247.217875,1359.55404 246.782128,1359.55404 L246.741277,1359.55404 C246.462126,1359.52 246.322553,1359.41787 246.322553,1359.24766 L246.322553,1359.22723 C246.322553,1358.9617 246.758294,1358.58043 247.629787,1358.0834 Z M250.193191,1356.58213 L250.22383,1356.58213 C250.08085,1357.56256 249.788087,1358.05277 249.345532,1358.05277 L249.304681,1358.05277 C249.025531,1358.01872 248.885957,1357.9166 248.885957,1357.74638 L248.885957,1357.72596 C248.885957,1357.46042 249.321698,1357.07915 250.193191,1356.58213 Z M250.989787,1358.0834 L251,1358.0834 C250.870638,1359.06383 250.584683,1359.55404 250.142128,1359.55404 L250.091064,1359.55404 C249.818722,1359.52681 249.682553,1359.42468 249.682553,1359.24766 L249.682553,1359.22723 C249.682553,1358.96851 250.118294,1358.58724 250.989787,1358.0834 Z M250.33617,1360.51404 L250.356596,1360.51404 C250.213616,1361.50128 249.920853,1361.99489 249.478298,1361.99489 L249.437447,1361.99489 C249.165105,1361.95404 249.028936,1361.84851 249.028936,1361.6783 L249.028936,1361.66809 C249.028936,1361.39574 249.464676,1361.01107 250.33617,1360.51404 Z M244.76,1360.1566 L245.178723,1360.1566 L245.219574,1360.19745 L245.219574,1360.99404 L245.229787,1360.99404 C247.326819,1360.99404 249.042547,1362.02212 250.377021,1364.0783 C250.581278,1364.43915 250.683404,1364.65021 250.683404,1364.71149 L250.683404,1364.76255 L250.673191,1364.76255 C250.564255,1364.70128 250.465532,1364.57192 250.377021,1364.37447 C250.206808,1364.27234 249.988937,1364.22128 249.723404,1364.22128 L249.406809,1364.22128 C248.691911,1364.22128 248.065535,1364.43234 247.52766,1364.85447 L247.52766,1365.19149 C247.52766,1365.25277 247.510638,1365.28681 247.476596,1365.29362 L247.241702,1364.87489 C246.519996,1364.61617 245.835748,1364.48681 245.188936,1364.48681 L245.188936,1368.83745 C245.188936,1369.26639 244.937024,1369.53191 244.433191,1369.63404 L244.218723,1369.64426 C243.782977,1369.64426 243.476597,1369.44 243.299574,1369.03149 L243.289362,1368.85787 L243.289362,1368.69447 L243.330213,1368.65362 L243.636596,1368.65362 L243.677447,1368.69447 L243.677447,1368.76596 C243.725107,1369.1949 243.898722,1369.40936 244.198298,1369.40936 L244.269787,1369.40936 C244.528512,1369.40936 244.705531,1369.28681 244.800851,1369.0417 L244.841702,1368.78638 L244.841702,1364.48681 C243.840846,1364.48681 243.136172,1364.61617 242.72766,1364.87489 C242.645957,1365.12 242.571064,1365.24255 242.502979,1365.24255 L242.451915,1365.2017 L242.451915,1365.12 L242.502979,1364.79319 L242.47234,1364.79319 C242.152339,1364.52766 241.525962,1364.33702 240.593191,1364.22128 L240.113191,1364.22128 C239.636593,1364.22128 239.320001,1364.35064 239.163404,1364.60936 L239.020426,1364.7217 L239,1364.7217 L239,1364.71149 C239.272342,1364.09872 239.864676,1363.33277 240.777021,1362.41362 C241.920857,1361.46723 243.234886,1360.99404 244.719149,1360.99404 L244.719149,1360.19745 L244.76,1360.1566 Z"
                      id="☔︎"></path>
            </g>
        </g>
    </symbol>

    <symbol id='grid'
            viewBox="0 0 12 12">
        <g id="WH_newer"
           stroke="none"
           stroke-width="1"
           fill="none"
           fill-rule="evenodd">
            <g id="1440_become-vendor"
               transform="translate(-780.000000, -1804.000000)"
               fill="currentColor">
                <path d="M791.140625,1811.4375 L787.460938,1811.4375 L787.460938,1815.13281 L783.695312,1815.13281 L783.695312,1811.4375 L780,1811.4375 L780,1807.67969 L783.695312,1807.67969 L783.695312,1804 L787.445312,1804 L787.445312,1807.67969 L791.140625,1807.67969 L791.140625,1811.4375 Z M787.382812,1811.35938 L787.382812,1807.75781 L783.765625,1807.75781 L783.765625,1811.35938 L787.382812,1811.35938 Z"
                      id="✜"></path>
            </g>
        </g>
    </symbol>

    <symbol id="hammers"
            viewBox="0 0 12 12">
        <g id="WH_newer"
           stroke="none"
           stroke-width="1"
           fill="none"
           fill-rule="evenodd">
            <g id="1440_become-vendor"
               transform="translate(-779.000000, -1867.000000)"
               fill="currentColor">
                <path d="M784.297485,1873.35906 L781.830876,1870.87164 L780.457069,1872.24545 L779,1870.77797 L780.373807,1869.39376 L780.030356,1869.07112 L781.050304,1868.05117 L781.37294,1868.37381 L782.73634,1867 L784.193408,1868.47788 L782.840416,1869.85169 L785.296618,1872.33912 L787.763226,1869.8621 L786.399827,1868.47788 L787.867303,1867 L789.230703,1868.38422 L789.553339,1868.05117 L790.562879,1869.07112 L790.229835,1869.39376 C790.576758,1869.94883 790.833477,1871.20467 791,1873.16132 L788.772767,1870.87164 L786.316565,1873.36947 L787.627927,1874.69124 L789.99046,1876.69991 L788.62706,1878.07372 L786.628794,1875.70078 L785.296618,1874.37901 L783.985256,1875.70078 L781.98699,1878.07372 L780.623591,1876.69991 L782.965308,1874.69124 L784.297485,1873.35906 Z"
                      id="⚒︎"></path>
            </g>
        </g>
    </symbol>

    <symbol id="flag"
            viewBox="0 0 8 11">
        <g id="WH_newer"
           stroke="none"
           stroke-width="1"
           fill="none"
           fill-rule="evenodd">
            <g id="1440_become-vendor"
               transform="translate(-783.000000, -1909.000000)"
               fill="currentColor">
                <path d="M783.523438,1909.35938 L783.007812,1909.35938 L783,1909 L784.84375,1909 L784.84375,1909.35938 L784.328125,1909.35938 L784.328125,1909.53906 C785.479172,1909.35677 786.54687,1909.61198 787.53125,1910.30469 C788.677089,1910.92969 789.778641,1911.09115 790.835938,1910.78906 L790.835938,1915.95312 C789.539056,1916.29167 788.309902,1916.17839 787.148438,1915.61328 C785.986973,1915.04817 784.9974,1914.94271 784.179688,1915.29688 L784.179688,1919.19531 L783.523438,1919.19531 L783.523438,1909.35938 Z"
                      id="⚑"></path>
            </g>
        </g>
    </symbol>

    <symbol id="pawn"
            viewBox="0 0 10 14">
        <g id="WH_newer"
           stroke="none"
           stroke-width="1"
           fill="none"
           fill-rule="evenodd">
            <g id="1440_become-vendor"
               transform="translate(-781.000000, -1950.000000)"
               fill="currentColor">
                <path d="M790.703125,1963.05958 L781,1963.05958 L781,1962.5127 C781,1961.13249 781.695306,1960.29656 783.085938,1960.00489 C784.247402,1958.26009 784.828125,1956.7549 784.828125,1955.48927 L784.828125,1955.15333 L782.9375,1955.15333 L782.9375,1954.80177 C782.9375,1954.49968 783.072915,1954.20802 783.34375,1953.92677 C783.614585,1953.64551 783.997393,1953.41375 784.492188,1953.23145 C784.158853,1952.83562 783.992188,1952.39291 783.992188,1951.90333 C783.992188,1951.39812 784.174477,1950.96323 784.539062,1950.59864 C784.903648,1950.23406 785.341143,1950.05177 785.851562,1950.05177 C786.361982,1950.05177 786.799477,1950.23406 787.164062,1950.59864 C787.528648,1950.96323 787.710938,1951.39812 787.710938,1951.90333 C787.710938,1952.39291 787.544272,1952.83562 787.210938,1953.23145 C787.705732,1953.41375 788.08854,1953.64551 788.359375,1953.92677 C788.63021,1954.20802 788.765625,1954.49968 788.765625,1954.80177 L788.765625,1955.15333 L786.875,1955.15333 L786.875,1955.48927 C786.875,1956.7549 787.455723,1958.26009 788.617188,1960.00489 C790.007819,1960.29656 790.703125,1961.13249 790.703125,1962.5127 L790.703125,1963.05958 Z"
                      id="♟"></path>
            </g>
        </g>
    </symbol>

    <symbol id="arrow"
            viewBox="0 0 11 7"
            version="1.1">
        <g id="WH_newer"
           stroke="none"
           stroke-width="1"
           fill="none"
           fill-rule="evenodd">
            <g id="1440_become-vendor"
               transform="translate(-780.000000, -1993.000000)"
               fill="currentColor">
                <path d="M790.711633,1995.79306 C790.799746,1995.88117 790.869834,1995.97729 790.921901,1996.08142 C790.973967,1996.18556 791,1996.28168 791,1996.36979 C791,1996.46591 790.974968,1996.56404 790.924904,1996.66417 C790.87484,1996.76429 790.803751,1996.86042 790.711633,1996.95253 L788.52485,1999.15133 C788.404696,1999.27549 788.287548,1999.36661 788.173403,1999.42468 C788.059257,1999.48275 787.946114,1999.51179 787.833971,1999.51179 C787.633715,1999.51179 787.473512,1999.44471 787.353359,1999.31053 C787.233205,1999.17636 787.173129,1998.99714 787.173129,1998.77285 C787.173129,1998.62466 787.214181,1998.40839 787.296286,1998.12402 C787.378391,1997.83966 787.419443,1997.6334 787.419443,1997.50524 C787.419443,1997.36105 787.373385,1997.25091 787.281267,1997.17482 C787.189149,1997.09872 787.058985,1997.06067 786.89077,1997.06067 C786.674494,1997.06067 786.495267,1997.11274 786.353086,1997.21687 C786.210904,1997.321 786.085746,1997.49122 785.977608,1997.72752 L785.472966,1998.78486 C785.320771,1999.10127 785.150556,1999.32956 784.962316,1999.46974 C784.774075,1999.60992 784.545787,1999.68 784.277444,1999.68 L780.883124,1999.68 C780.58274,1999.68 780.360459,1999.61092 780.216275,1999.47274 C780.072091,1999.33456 780,1999.12129 780,1998.83293 C780,1998.76484 780.007009,1998.69375 780.021027,1998.61965 C780.035045,1998.54556 780.056071,1998.46446 780.084107,1998.37635 L780.648826,1996.68219 C780.664846,1996.62612 780.676861,1996.56905 780.684872,1996.51097 C780.692882,1996.4529 780.696887,1996.39783 780.696887,1996.34576 C780.696887,1996.28969 780.692882,1996.23963 780.684872,1996.19557 C780.676861,1996.15151 780.664846,1996.10746 780.648826,1996.0634 L780.084107,1994.36925 C780.056071,1994.28914 780.035045,1994.21205 780.021027,1994.13795 C780.007009,1994.06386 780,1993.98876 780,1993.91266 C780,1993.6283 780.073092,1993.41503 780.219279,1993.27285 C780.365466,1993.13067 780.586745,1993.05958 780.883124,1993.05958 L784.277444,1993.05958 C784.545787,1993.05958 784.774075,1993.13167 784.962316,1993.27585 C785.150556,1993.42004 785.320771,1993.64833 785.472966,1993.96073 L785.977608,1995.01807 C786.093756,1995.26639 786.220917,1995.43961 786.359093,1995.53773 C786.49727,1995.63586 786.678499,1995.68492 786.902785,1995.68492 C787.066995,1995.68492 787.194156,1995.64587 787.284271,1995.56777 C787.374386,1995.48967 787.419443,1995.38053 787.419443,1995.24035 C787.419443,1995.11219 787.378391,1994.90493 787.296286,1994.61856 C787.214181,1994.3322 787.173129,1994.11292 787.173129,1993.96073 C787.173129,1993.74044 787.233205,1993.56422 787.353359,1993.43205 C787.473512,1993.29988 787.633715,1993.2338 787.833971,1993.2338 C787.946114,1993.2338 788.060258,1993.26384 788.176406,1993.32391 C788.292555,1993.38399 788.408701,1993.47411 788.52485,1993.59426 L790.711633,1995.79306 Z"
                      id="➽"></path>
            </g>
        </g>
    </symbol>

</svg>